<svg width="20" height="20" viewBox="0 0 20 20" fill="none" xmlns="http://www.w3.org/2000/svg">
<path d="M17.3573 10.7175C17.5 10.373 17.5 9.93614 17.5 9.0625C17.5 8.18886 17.5 7.75204 17.3573 7.40747C17.167 6.94804 16.802 6.58303 16.3425 6.39273C15.998 6.25 15.5611 6.25 14.6875 6.25H9.25C8.1999 6.25 7.67485 6.25 7.27377 6.45436C6.92096 6.63413 6.63413 6.92096 6.45436 7.27377C6.25 7.67485 6.25 8.1999 6.25 9.25V14.6875C6.25 15.5611 6.25 15.998 6.39273 16.3425C6.58303 16.802 6.94804 17.167 7.40747 17.3573C7.75204 17.5 8.18886 17.5 9.0625 17.5C9.93614 17.5 10.373 17.5 10.7175 17.3573M17.3573 10.7175C17.167 11.177 16.802 11.542 16.3425 11.7323C15.998 11.875 15.5611 11.875 14.6875 11.875C13.8139 11.875 13.377 11.875 13.0325 12.0177C12.573 12.208 12.208 12.573 12.0177 13.0325C11.875 13.377 11.875 13.8139 11.875 14.6875C11.875 15.5611 11.875 15.998 11.7323 16.3425C11.542 16.802 11.177 17.167 10.7175 17.3573M17.3573 10.7175C16.447 13.8573 14.0211 16.3303 10.8994 17.3007L10.7175 17.3573M13.75 6.25L13.75 5.5C13.75 4.4499 13.75 3.92485 13.5456 3.52377C13.3659 3.17096 13.079 2.88413 12.7262 2.70436C12.3251 2.5 11.8001 2.5 10.75 2.5H5.5C4.4499 2.5 3.92485 2.5 3.52377 2.70436C3.17096 2.88413 2.88413 3.17096 2.70436 3.52377C2.5 3.92485 2.5 4.4499 2.5 5.5V10.75C2.5 11.8001 2.5 12.3251 2.70436 12.7262C2.88413 13.079 3.17096 13.3659 3.52377 13.5456C3.92485 13.75 4.45008 13.75 5.50055 13.75H6.25" stroke="#020618" stroke-width="1.25" stroke-linecap="round" stroke-linejoin="round"/>
</svg>
