<svg width="20" height="20" viewBox="0 0 20 20" fill="none" xmlns="http://www.w3.org/2000/svg">
<path d="M2.70898 10.8335C7.5701 10.8335 12.4312 10.8335 17.2923 10.8335" stroke="black" stroke-width="1.25" stroke-linecap="round" stroke-linejoin="round"/>
<path d="M4.54167 3.425L2.7396 9.96392C2.58059 10.5409 2.5 11.1367 2.5 11.7352V15.8333C2.5 16.2754 2.67559 16.6993 2.98816 17.0118C3.30072 17.3244 3.72464 17.5 4.16667 17.5H15.8333C16.2754 17.5 16.6993 17.3244 17.0118 17.0118C17.3244 16.6993 17.5 16.2754 17.5 15.8333V11.7352C17.5 11.1367 17.4194 10.5409 17.2604 9.96392L15.4583 3.425C15.3204 3.14732 15.1076 2.91364 14.8441 2.75023C14.5806 2.58682 14.2767 2.50016 13.9667 2.5H6.03333C5.72326 2.50016 5.41939 2.58682 5.15587 2.75023C4.89235 2.91364 4.67965 3.14732 4.54167 3.425Z" stroke="black" stroke-width="1.25" stroke-linecap="round" stroke-linejoin="round"/>
<path d="M14.166 14.1665H14.9993" stroke="black" stroke-width="1.25" stroke-linecap="round" stroke-linejoin="round"/>
<path d="M10.834 14.1665H11.6673" stroke="black" stroke-width="1.25" stroke-linecap="round" stroke-linejoin="round"/>
</svg>
