<svg width="20" height="20" viewBox="0 0 20 20" fill="none" xmlns="http://www.w3.org/2000/svg">
<path d="M10.001 1.04199C10.6356 1.04201 11.2561 1.10846 11.8545 1.23438C14.7875 1.85165 17.1905 3.90142 18.2988 6.61719C18.7251 7.66165 18.9599 8.80442 18.96 10C18.96 10.6347 18.8935 11.2551 18.7676 11.8535C18.0394 15.3143 15.3153 18.0382 11.8545 18.7666C11.2561 18.8925 10.6356 18.959 10.001 18.959C9.36656 18.959 8.74663 18.8924 8.14844 18.7666C4.68753 18.0384 1.96362 15.3144 1.23535 11.8535C1.10943 11.2551 1.04297 10.6347 1.04297 10C1.04303 8.80353 1.27824 7.66032 1.70508 6.61523C2.81393 3.9006 5.2162 1.85138 8.14844 1.23438C8.74663 1.10855 9.36656 1.04201 10.001 1.04199ZM12.2344 13.7773C11.4667 13.8873 10.7026 13.959 10.001 13.959C9.47442 13.959 8.91268 13.9191 8.34082 13.8525L7.7666 13.7773C8.10098 15.3815 8.53051 16.8525 8.7627 17.6084C9.16548 17.6734 9.57912 17.709 10.001 17.709C10.4227 17.709 10.8366 17.6734 11.2393 17.6084C11.4424 16.9471 11.7953 15.7383 12.1045 14.3721L12.2344 13.7773ZM2.76172 12.6533C3.53968 14.7755 5.22476 16.4608 7.34668 17.2393C7.07643 16.3036 6.7212 14.9584 6.44922 13.5518C5.04247 13.2797 3.69728 12.9236 2.76172 12.6533ZM17.2402 12.6533C16.3046 12.9236 14.9594 13.2797 13.5527 13.5518C13.2807 14.9584 12.9245 16.3036 12.6543 17.2393C14.7767 16.461 16.4621 14.7757 17.2402 12.6533ZM12.6357 8.71484C11.734 8.85922 10.8245 8.95896 10.001 8.95898C9.17738 8.95896 8.26803 8.85925 7.36621 8.71484C7.31999 9.16602 7.29299 9.59871 7.29297 10C7.29297 10.7476 7.38618 11.6002 7.52734 12.4736C8.40084 12.6148 9.25328 12.709 10.001 12.709C10.7486 12.709 11.6012 12.6148 12.4746 12.4736C12.6158 11.6002 12.71 10.7476 12.71 10C12.7099 9.59869 12.682 9.16604 12.6357 8.71484ZM2.66699 7.625C2.42507 8.37256 2.29302 9.17039 2.29297 10C2.29297 10.4221 2.32751 10.8362 2.39258 11.2393C3.14826 11.4714 4.61967 11.899 6.22363 12.2334C6.1137 11.4657 6.04297 10.7016 6.04297 10C6.04299 9.51848 6.07594 9.00878 6.13184 8.49023C4.79263 8.2177 3.53538 7.87777 2.66699 7.625ZM17.334 7.625C16.4654 7.87781 15.2082 8.21778 13.8691 8.49023C13.9251 9.00884 13.9599 9.51843 13.96 10C13.96 10.7016 13.8883 11.4657 13.7783 12.2334C15.3823 11.899 16.8536 11.4704 17.6094 11.2383C17.6743 10.8356 17.71 10.4218 17.71 10C17.7099 9.17021 17.576 8.3727 17.334 7.625ZM10.001 2.29199C9.57922 2.29201 9.16539 2.32564 8.7627 2.39062C8.47048 3.34191 7.86912 5.42386 7.5332 7.47559C8.40402 7.61613 9.25452 7.70896 10.001 7.70898C10.7473 7.70896 11.5981 7.6161 12.4688 7.47559C12.1328 5.42353 11.5304 3.3417 11.2383 2.39062C10.836 2.32577 10.4223 2.29201 10.001 2.29199ZM7.34668 2.76367C5.52951 3.43054 4.03335 4.762 3.15234 6.46484C3.97427 6.70139 5.10517 7.00314 6.30371 7.25C6.58139 5.5642 7.02572 3.87509 7.34668 2.76367ZM12.6553 2.76465C12.9762 3.87608 13.4206 5.56457 13.6982 7.25C14.8963 7.00326 16.0267 6.70136 16.8486 6.46484C15.9676 4.76219 14.4723 3.43146 12.6553 2.76465Z" fill="black"/>
</svg>
