<svg width="17" height="17" viewBox="0 0 17 17" fill="none" xmlns="http://www.w3.org/2000/svg">
<path d="M0 16.6667L4.40931 15.6868C5.57867 16.3122 6.91458 16.6667 8.33333 16.6667C12.9357 16.6667 16.6667 12.9357 16.6667 8.33333C16.6667 3.73096 12.9357 0 8.33333 0C3.73096 0 0 3.73096 0 8.33333C0 9.75208 0.354533 11.088 0.979842 12.2573L0 16.6667ZM5.19523 14.2171L4.65063 13.9258L2.19513 14.4715L2.7408 12.016L2.44957 11.4714C1.93791 10.5146 1.66667 9.44542 1.66667 8.33333C1.66667 4.65143 4.65143 1.66667 8.33333 1.66667C12.0153 1.66667 15 4.65143 15 8.33333C15 12.0153 12.0153 15 8.33333 15C7.22125 15 6.15207 14.7288 5.19523 14.2171ZM11.2073 4.16667H9.53425L9.38842 5.83353H7.71533L7.86117 4.16667H6.18814L6.04231 5.83353H4.16667V7.50017H5.8965L5.75068 9.16683H4.16667V10.8335H5.60487L5.45908 12.5H7.13208L7.27792 10.8335H8.95092L8.80517 12.5H10.4782L10.624 10.8335H12.5V9.16683H10.7698L10.9156 7.50017H12.5V5.83353H11.0614L11.2073 4.16667ZM7.5695 7.50017H9.24258L9.09675 9.16683H7.42375L7.5695 7.50017Z" fill="white"/>
</svg>
