<svg width="15" height="15" viewBox="0 0 15 15" fill="none" xmlns="http://www.w3.org/2000/svg">
<path d="M5.625 0.625V1.875H9.375V0.625H10.625V1.875H13.125C13.4702 1.875 13.75 2.15482 13.75 2.5V12.5C13.75 12.8452 13.4702 13.125 13.125 13.125H1.875C1.52983 13.125 1.25 12.8452 1.25 12.5V2.5C1.25 2.15482 1.52983 1.875 1.875 1.875H4.375V0.625H5.625ZM12.5 6.875H2.5V11.875H12.5V6.875ZM5 8.125V9.375H3.75V8.125H5ZM8.125 8.125V9.375H6.875V8.125H8.125ZM11.25 8.125V9.375H10V8.125H11.25ZM4.375 3.125H2.5V5.625H12.5V3.125H10.625V4.375H9.375V3.125H5.625V4.375H4.375V3.125Z" fill="#515151"/>
</svg>
