<svg width="78" height="83" viewBox="0 0 78 83" fill="none" xmlns="http://www.w3.org/2000/svg">
<path d="M10.5345 29.1743C10.3202 28.4954 10.6637 27.7601 11.3018 27.532L37.5735 18.1428C38.2116 17.9148 38.9026 18.2804 39.1169 18.9593L50.6284 55.4312C50.8427 56.1102 50.4992 56.8455 49.8611 57.0735L23.5894 66.4627C22.9513 66.6908 22.2603 66.3252 22.046 65.6462L10.5345 29.1743Z" fill="#282828"/>
<path d="M7.51889 27.5701C7.30458 26.8911 7.64812 26.1558 8.28619 25.9278L34.5579 16.5386C35.196 16.3106 35.887 16.6761 36.1013 17.3551L47.6128 53.827C47.8271 54.506 47.4835 55.2412 46.8455 55.4693L20.5737 64.8585C19.9357 65.0865 19.2447 64.721 19.0304 64.042L7.51889 27.5701Z" fill="white"/>
<path fill-rule="evenodd" clip-rule="evenodd" d="M7.89855 24.6985L34.1703 15.3093C35.4464 14.8532 36.8284 15.5843 37.257 16.9423L48.7685 53.4142C49.1971 54.7721 48.51 56.2427 47.2339 56.6988L20.9621 66.088C19.686 66.544 18.304 65.8129 17.8754 64.455L6.36394 27.9831C5.93534 26.6251 6.62241 25.1546 7.89855 24.6985ZM8.28658 25.9279C7.64851 26.1559 7.30497 26.8912 7.51927 27.5702L19.0308 64.0421C19.2451 64.7211 19.936 65.0866 20.5741 64.8586L46.8458 55.4694C47.4839 55.2413 47.8275 54.5061 47.6132 53.8271L36.1017 17.3552C35.8874 16.6762 35.1964 16.3106 34.5583 16.5387L8.28658 25.9279Z" fill="#282828"/>
<path fill-rule="evenodd" clip-rule="evenodd" d="M15.3873 32.867C15.2802 32.5275 15.452 32.1598 15.771 32.0458L31.4199 26.4531C31.7389 26.3391 32.0844 26.5219 32.1915 26.8614C32.2987 27.2008 32.1269 27.5685 31.8079 27.6825L16.159 33.2752C15.84 33.3892 15.4945 33.2065 15.3873 32.867Z" fill="#282828"/>
<path fill-rule="evenodd" clip-rule="evenodd" d="M16.6352 36.8209C16.528 36.4814 16.6998 36.1138 17.0188 35.9998L32.6677 30.4071C32.9867 30.293 33.3322 30.4758 33.4394 30.8153C33.5465 31.1548 33.3747 31.5224 33.0557 31.6364L17.4068 37.2292C17.0878 37.3432 16.7423 37.1604 16.6352 36.8209Z" fill="#282828"/>
<path fill-rule="evenodd" clip-rule="evenodd" d="M17.8834 40.7749C17.7763 40.4355 17.948 40.0678 18.2671 39.9538L33.9159 34.3611C34.235 34.2471 34.5805 34.4298 34.6876 34.7693C34.7948 35.1088 34.623 35.4765 34.304 35.5905L18.6551 41.1832C18.3361 41.2972 17.9906 41.1144 17.8834 40.7749Z" fill="#282828"/>
<path fill-rule="evenodd" clip-rule="evenodd" d="M19.1313 44.7288C19.0241 44.3893 19.1959 44.0217 19.5149 43.9077L35.1638 38.315C35.4828 38.2009 35.8283 38.3837 35.9355 38.7232C36.0426 39.0627 35.8708 39.4303 35.5518 39.5443L19.9029 45.1371C19.5839 45.2511 19.2384 45.0683 19.1313 44.7288Z" fill="#282828"/>
<path fill-rule="evenodd" clip-rule="evenodd" d="M20.3791 48.6826C20.2719 48.3431 20.4437 47.9755 20.7627 47.8615L36.4116 42.2687C36.7306 42.1547 37.0761 42.3375 37.1833 42.677C37.2904 43.0165 37.1187 43.3841 36.7996 43.4981L21.1508 49.0908C20.8317 49.2049 20.4862 49.0221 20.3791 48.6826Z" fill="#282828"/>
<path fill-rule="evenodd" clip-rule="evenodd" d="M29.1 49.9604C29.2073 50.2998 29.0358 50.6676 28.7168 50.7818L22.399 53.0446C22.08 53.1589 21.7344 52.9764 21.627 52.6369C21.5197 52.2975 21.6912 51.9298 22.0102 51.8155L28.328 49.5527C28.647 49.4384 28.9926 49.621 29.1 49.9604Z" fill="#282828"/>
<path d="M41.4602 18.9415C41.6375 18.2505 42.3076 17.8434 42.9569 18.0321L69.6917 25.8016C70.341 25.9903 70.7237 26.7034 70.5463 27.3943L61.0207 64.509C60.8434 65.2 60.1732 65.6071 59.5239 65.4184L32.7891 57.649C32.1398 57.4603 31.7572 56.7472 31.9345 56.0562L41.4602 18.9415Z" fill="white"/>
<path fill-rule="evenodd" clip-rule="evenodd" d="M43.2772 16.781L70.012 24.5505C71.3106 24.9279 72.0758 26.3541 71.7212 27.7359L62.1955 64.8507C61.8409 66.2326 60.5006 67.0468 59.202 66.6694L32.4672 58.9C31.1685 58.5226 30.4033 57.0964 30.758 55.7145L40.2836 18.5998C40.6383 17.2179 41.9785 16.4036 43.2772 16.781ZM42.9561 18.0321C42.3068 17.8434 41.6366 18.2505 41.4593 18.9414L31.9337 56.0562C31.7563 56.7471 32.1389 57.4602 32.7883 57.6489L59.523 65.4184C60.1724 65.6071 60.8425 65.1999 61.0198 64.509L70.5455 27.3943C70.7228 26.7033 70.3402 25.9902 69.6909 25.8015L42.9561 18.0321Z" fill="#282828"/>
<path fill-rule="evenodd" clip-rule="evenodd" d="M54.5001 51.3163C54.7355 51.3872 54.9082 51.601 54.9387 51.8593L55.6913 58.2277C55.7333 58.583 55.4967 58.9073 55.1627 58.952C54.8288 58.9966 54.5241 58.7448 54.4821 58.3895L53.9089 53.5389L51.0021 57.3896C50.7913 57.6688 50.4078 57.7133 50.1454 57.489C49.883 57.2647 49.8412 56.8566 50.0519 56.5774L53.859 51.5341C54.0122 51.3311 54.2647 51.2454 54.5001 51.3163Z" fill="#282828"/>
<path fill-rule="evenodd" clip-rule="evenodd" d="M51.6363 54.7322C51.725 54.3867 52.0601 54.1832 52.3847 54.2775L54.9276 55.0165C55.2523 55.1109 55.4436 55.4674 55.3549 55.8129C55.2663 56.1584 54.9312 56.3619 54.6065 56.2676L52.0636 55.5286C51.739 55.4342 51.5477 55.0777 51.6363 54.7322Z" fill="#282828"/>
<path fill-rule="evenodd" clip-rule="evenodd" d="M58.1543 54.8015C58.4789 54.8958 58.6702 55.2523 58.5816 55.5978L58.1026 57.464C58.0139 57.8094 57.6789 58.013 57.3542 57.9187C57.0296 57.8243 56.8382 57.4678 56.9269 57.1223L57.4059 55.2561C57.4945 54.9107 57.8296 54.7071 58.1543 54.8015Z" fill="#282828"/>
<path fill-rule="evenodd" clip-rule="evenodd" d="M59.2184 56.7856C59.1297 57.131 58.7946 57.3346 58.47 57.2403L56.7162 56.7306C56.3916 56.6363 56.2003 56.2797 56.2889 55.9342C56.3776 55.5888 56.7127 55.3852 57.0373 55.4795L58.7911 55.9892C59.1157 56.0835 59.307 56.4401 59.2184 56.7856Z" fill="#282828"/>
<path d="M59.2183 39.5898C59.7495 39.267 59.9343 38.5471 59.631 37.9818C59.3277 37.4166 58.6511 37.2199 58.1199 37.5427L51.6092 41.4983C51.0247 41.8535 50.2803 41.6371 49.9465 41.0151L47.8627 37.1314C47.5593 36.5661 46.8828 36.3695 46.3516 36.6923C45.8204 37.015 45.6356 37.7349 45.9389 38.3002L48.6263 43.3088C48.6267 43.3095 48.6265 43.3105 48.6258 43.311C48.625 43.3114 48.6248 43.3124 48.6252 43.3132L49.7221 45.3574C49.7225 45.3582 49.7234 45.3585 49.7242 45.358L49.7242 45.358C49.7249 45.3576 49.7258 45.3579 49.7262 45.3586C49.7266 45.3594 49.7275 45.3596 49.7282 45.3592L51.6494 44.192C51.6501 44.1915 51.6504 44.1906 51.6499 44.1898C51.6495 44.1891 51.6498 44.1881 51.6505 44.1877L59.2183 39.5898Z" fill="white"/>
<path fill-rule="evenodd" clip-rule="evenodd" d="M51.0051 40.3721L57.5158 36.4165C58.6316 35.7386 60.0525 36.1515 60.6896 37.3388C61.3266 38.5261 60.9385 40.0381 59.8228 40.716L52.3268 45.2702C52.3032 45.287 52.2789 45.303 52.2539 45.3182L50.3327 46.4854C50.0423 46.6618 49.7125 46.6974 49.4131 46.6124C49.1074 46.5268 48.833 46.3156 48.6639 46.0005L47.567 43.9562C47.5526 43.9293 47.5392 43.9021 47.5267 43.8746L44.8807 38.9432C44.2437 37.7559 44.6317 36.2439 45.7475 35.566C46.8633 34.8881 48.2842 35.3011 48.9212 36.4884L51.0051 40.3721ZM59.6312 37.9818C59.9345 38.5471 59.7497 39.267 59.2185 39.5898L51.6507 44.1876C51.65 44.1881 51.6498 44.189 51.6502 44.1898C51.6503 44.1901 51.6504 44.1904 51.6504 44.1907C51.6503 44.1912 51.6501 44.1917 51.6496 44.1919L49.7284 45.3592C49.7277 45.3596 49.7268 45.3593 49.7264 45.3586C49.726 45.3578 49.7251 45.3576 49.7244 45.358L49.7244 45.358C49.7236 45.3585 49.7227 45.3582 49.7223 45.3574L48.6254 43.3131C48.625 43.3124 48.6252 43.3114 48.626 43.3109C48.6267 43.3105 48.6269 43.3095 48.6265 43.3088L45.9391 38.3002C45.6358 37.7349 45.8206 37.015 46.3518 36.6923C46.883 36.3695 47.5596 36.5661 47.8629 37.1314L49.9467 41.0151C50.2805 41.6371 51.0249 41.8535 51.6094 41.4983L58.1201 37.5427C58.6513 37.2199 59.3279 37.4165 59.6312 37.9818Z" fill="#282828"/>
</svg>
