<svg width="32" height="32" viewBox="0 0 32 32" fill="none" xmlns="http://www.w3.org/2000/svg">
<path d="M15.3328 7.99902C16.7268 7.99879 18.092 8.3958 19.2684 9.14356C20.4448 9.89132 21.3838 10.9589 21.9753 12.2211C22.5668 13.4833 22.7864 14.888 22.6083 16.2705C22.4302 17.6531 21.8617 18.9562 20.9696 20.0273L23.85 22.9077C24.074 23.1264 24.0433 23.5185 23.7833 23.7852C23.5166 24.0452 23.1245 24.0745 22.9072 23.8505L20.0268 20.9701C19.1216 21.7237 18.0482 22.2481 16.8975 22.4992C15.7468 22.7502 14.5525 22.7204 13.4157 22.4123C12.2789 22.1042 11.2331 21.5268 10.3666 20.7291C9.50009 19.9313 8.83848 18.9366 8.43769 17.8291C8.03691 16.7216 7.90874 15.5338 8.06403 14.3663C8.21932 13.1988 8.65351 12.0859 9.32986 11.1216C10.0062 10.1574 10.9048 9.3702 11.9497 8.82668C12.9946 8.28315 14.155 7.99926 15.3328 7.99902ZM15.3328 9.3192C11.5256 9.3192 9.32935 12.3863 9.32935 15.3334C9.32935 18.2804 11.519 21.3608 15.3302 21.3608C19.14 21.3608 21.331 18.2804 21.331 15.3334C21.331 12.3863 19.14 9.3192 15.3328 9.3192Z" fill="#929297"/>
</svg>
