<svg width="19" height="19" viewBox="0 0 19 19" fill="none" xmlns="http://www.w3.org/2000/svg">
<path d="M15.8333 1.58337C16.2706 1.58337 16.625 1.93782 16.625 2.37504V5.34933L15.0417 6.93267V3.16671H3.95833V15.8334H15.0417V13.65L16.625 12.0666V16.625C16.625 17.0623 16.2706 17.4167 15.8333 17.4167H3.16667C2.72944 17.4167 2.375 17.0623 2.375 16.625V2.37504C2.375 1.93782 2.72944 1.58337 3.16667 1.58337H15.8333ZM17.2411 6.97273L18.3606 8.0923L12.2029 14.25L11.0817 14.2484L11.0833 13.1305L17.2411 6.97273ZM10.2917 9.50004V11.0834H6.33333V9.50004H10.2917ZM12.6667 6.33337V7.91671H6.33333V6.33337H12.6667Z" fill="#4C6694"/>
</svg>
