<svg width="21" height="21" viewBox="0 0 21 21" fill="none" xmlns="http://www.w3.org/2000/svg">
<path d="M17.5723 13.2999L18.6241 13.9311C18.8312 14.0554 18.8984 14.3241 18.7742 14.5313C18.7372 14.5929 18.6856 14.6445 18.6241 14.6814L10.9495 19.2861C10.6724 19.4524 10.3262 19.4524 10.0491 19.2861L2.37459 14.6814C2.1674 14.557 2.1002 14.2883 2.22452 14.0811C2.26147 14.0195 2.313 13.968 2.37459 13.9311L3.42642 13.2999L10.4993 17.5437L17.5723 13.2999ZM17.5723 9.18743L18.6241 9.81856C18.8312 9.9429 18.8984 10.2116 18.7742 10.4188C18.7372 10.4804 18.6856 10.532 18.6241 10.5689L10.4993 15.4437L2.37459 10.5689C2.1674 10.4445 2.1002 10.1758 2.22452 9.96863C2.26147 9.90703 2.313 9.85549 2.37459 9.81856L3.42642 9.18743L10.4993 13.4312L17.5723 9.18743ZM10.9495 1.14507L18.6241 5.74981C18.8312 5.87412 18.8984 6.14286 18.7742 6.35005C18.7372 6.41164 18.6856 6.46317 18.6241 6.50012L10.4993 11.3749L2.37459 6.50012C2.1674 6.37581 2.1002 6.10707 2.22452 5.89988C2.26147 5.83829 2.313 5.78676 2.37459 5.74981L10.0491 1.14507C10.3262 0.978823 10.6724 0.978823 10.9495 1.14507ZM10.4993 2.9158L5.15072 6.12497L10.4993 9.33416L15.8479 6.12497L10.4993 2.9158Z" fill="#4C6694"/>
</svg>
