<svg width="19" height="19" viewBox="0 0 19 19" fill="none" xmlns="http://www.w3.org/2000/svg">
<path d="M16.1616 6.29926L15.9486 6.79916C15.7928 7.16514 15.2981 7.16514 15.1422 6.79916L14.9293 6.29926C14.5498 5.4079 13.8661 4.69822 13.013 4.30998L12.3569 4.0114C12.0022 3.84996 12.0022 3.32174 12.3569 3.16029L12.9763 2.8784C13.8513 2.48017 14.5473 1.74423 14.9203 0.822595L15.1389 0.282376C15.2914 -0.0941253 15.7995 -0.0941253 15.9519 0.282376L16.1706 0.822595C16.5436 1.74423 17.2396 2.48017 18.1146 2.8784L18.7339 3.16029C19.0887 3.32174 19.0887 3.84996 18.7339 4.0114L18.0779 4.30998C17.2248 4.69822 16.5411 5.4079 16.1616 6.29926ZM6.90909 1.76744H10.3636V3.53488H6.90909C4.04725 3.53488 1.72727 5.90882 1.72727 8.83721C1.72727 12.0274 3.85361 14.1091 8.63636 16.331V14.1395H10.3636C13.2255 14.1395 15.5455 11.7656 15.5455 8.83721H17.2727C17.2727 12.7418 14.1794 15.907 10.3636 15.907V19C6.04545 17.2326 0 14.5814 0 8.83721C0 4.93268 3.0933 1.76744 6.90909 1.76744Z" fill="white"/>
</svg>
