<svg width="47" height="45" viewBox="0 0 47 45" fill="none" xmlns="http://www.w3.org/2000/svg">
<path d="M23.5007 23.5984L31.8091 31.5532L29.0396 34.2049L25.459 30.7781V41.25H21.5423V30.7744L17.9616 34.2049L15.1921 31.5532L23.5007 23.5984ZM23.5007 3.75C30.5377 3.75 36.3364 8.82677 37.1191 15.3637C41.6853 16.5591 45.0423 20.5605 45.0423 25.3125C45.0423 30.6915 40.741 35.1086 35.2518 35.583L35.2524 31.8082C38.5732 31.3526 41.1257 28.6179 41.1257 25.3125C41.1257 21.6881 38.0569 18.75 34.2715 18.75C33.8626 18.75 33.4621 18.7843 33.0744 18.8512C33.2171 18.2141 33.2923 17.553 33.2923 16.875C33.2923 11.6973 28.9084 7.5 23.5007 7.5C18.0929 7.5 13.709 11.6973 13.709 16.875C13.709 17.553 13.7841 18.2141 13.9284 18.8499C13.5392 18.7843 13.1387 18.75 12.7298 18.75C8.94436 18.75 5.87565 21.6881 5.87565 25.3125C5.87565 28.5006 8.24995 31.1576 11.3979 31.7512L11.7507 31.8086L11.7514 35.583C6.26136 35.1098 1.95898 30.6922 1.95898 25.3125C1.95898 20.5605 5.31604 16.5591 9.88334 15.364C10.665 8.82677 16.4636 3.75 23.5007 3.75Z" fill="#99A9CB"/>
</svg>
