<svg width="20" height="16" viewBox="0 0 20 16" fill="none" xmlns="http://www.w3.org/2000/svg">
<path d="M16.9734 15.9469H3.02344C1.74844 15.9469 0.773438 14.8969 0.773438 13.6969V2.29687C0.773438 1.02187 1.82344 0.046875 3.02344 0.046875H6.02344C7.29844 0.046875 8.27344 1.09687 8.27344 2.29687V2.89687C8.27344 3.04687 8.42344 3.12187 8.49844 3.12187H16.8234C18.0984 3.12187 19.0734 4.17188 19.0734 5.37187V13.6219C19.2234 14.8969 18.1734 15.9469 16.9734 15.9469ZM3.02344 1.54688C2.57344 1.54688 2.27344 1.92187 2.27344 2.29687V13.6219C2.27344 14.0719 2.64844 14.3719 3.02344 14.3719H16.8984C17.3484 14.3719 17.6484 13.9969 17.6484 13.6219V5.37187C17.6484 4.92188 17.2734 4.62187 16.8984 4.62187H8.57344C7.59844 4.62187 6.84844 3.79687 6.84844 2.89687V2.29687C6.84844 1.84687 6.47344 1.54688 6.09844 1.54688H3.02344Z" fill="#515063"/>
</svg>
