<svg width="30" height="30" viewBox="0 0 30 30" fill="none" xmlns="http://www.w3.org/2000/svg">
<path d="M27.5 5C27.5 4.30965 26.9404 3.75 26.25 3.75H3.75C3.05965 3.75 2.5 4.30965 2.5 5V25C2.5 25.6904 3.05965 26.25 3.75 26.25H26.25C26.9404 26.25 27.5 25.6904 27.5 25V5ZM5 18.75H9.27005C10.2345 20.9574 12.4371 22.5 15 22.5C17.5629 22.5 19.7655 20.9574 20.73 18.75H25V23.75H5V18.75ZM5 6.25H25V16.25H18.75C18.75 18.3211 17.0711 20 15 20C12.9289 20 11.25 18.3211 11.25 16.25H5V6.25ZM20 11.25H16.25V7.5H13.75V11.25H10L15 16.875L20 11.25Z" fill="#111111"/>
</svg>
