<svg 
  xmlns="http://www.w3.org/2000/svg" 
  width="17" 
  height="17" 
  viewBox="0 0 17 17" 
  fill="none"
  style="margin-right: 8px;"
>
  <path d="M11.9264 14.9334L9.03108 13.4831V13.2812C9.03108 13.1404 8.97511 13.0052 8.87548 12.9056C8.77585 12.806 8.64073 12.75 8.49983 12.75C8.35893 12.75 8.22381 12.806 8.12418 12.9056C8.02455 13.0052 7.96858 13.1404 7.96858 13.2812V13.4831L5.07327 14.9334C4.95833 15.0026 4.87381 15.1127 4.83668 15.2416C4.79955 15.3705 4.81255 15.5086 4.87307 15.6283C4.9336 15.7481 5.03717 15.8404 5.16299 15.8869C5.28881 15.9334 5.42756 15.9306 5.55139 15.8791L7.96858 14.6731V14.875C7.96858 15.0159 8.02455 15.151 8.12418 15.2507C8.22381 15.3503 8.35893 15.4062 8.49983 15.4062C8.64073 15.4062 8.77585 15.3503 8.87548 15.2507C8.97511 15.151 9.03108 15.0159 9.03108 14.875V14.6731L11.4483 15.8791C11.5217 15.9184 11.604 15.9385 11.6873 15.9375C11.7854 15.9372 11.8815 15.9097 11.965 15.8582C12.0485 15.8066 12.116 15.7329 12.1601 15.6453C12.2232 15.5198 12.2339 15.3745 12.1901 15.2411C12.1463 15.1078 12.0515 14.9971 11.9264 14.9334Z" fill="#263238"/>
  <path d="M12.1763 10.9544C12.1364 10.8574 12.0687 10.7743 11.9818 10.7157C11.8948 10.6571 11.7924 10.6255 11.6875 10.625H5.31251C5.20763 10.6255 5.10525 10.6571 5.01827 10.7157C4.9313 10.7743 4.86362 10.8574 4.82376 10.9544C4.78308 11.0511 4.77197 11.1578 4.79182 11.2608C4.81168 11.3639 4.86161 11.4587 4.93533 11.5334L6.52908 13.1272C6.57872 13.1764 6.63759 13.2154 6.70231 13.2418C6.76704 13.2683 6.83635 13.2817 6.90626 13.2812H8.50001V10.625H5.31251Z" fill="#FFA000"/>
  <path d="M14.3437 1.0625H2.65625C1.77605 1.0625 1.0625 1.77605 1.0625 2.65625V10.0938C1.0625 10.974 1.77605 11.6875 2.65625 11.6875H14.3437C15.224 11.6875 15.9375 10.974 15.9375 10.0938V2.65625C15.9375 1.77605 15.224 1.0625 14.3437 1.0625Z" fill="#455A64"/>
  <path d="M12.2188 4.78125H4.78125C4.64035 4.78125 4.50523 4.72528 4.4056 4.62565C4.30597 4.52602 4.25 4.3909 4.25 4.25C4.25 4.1091 4.30597 3.97398 4.4056 3.87435C4.50523 3.77472 4.64035 3.71875 4.78125 3.71875H12.2188C12.3596 3.71875 12.4948 3.77472 12.5944 3.87435C12.694 3.97398 12.75 4.1091 12.75 4.25C12.75 4.3909 12.694 4.52602 12.5944 4.62565C12.4948 4.72528 12.3596 4.78125 12.2188 4.78125Z" fill="#BDBDBD"/>
  <path d="M7.4375 6.90625H4.78125C4.64035 6.90625 4.50523 6.85028 4.4056 6.75065C4.30597 6.65102 4.25 6.5159 4.25 6.375C4.25 6.2341 4.30597 6.09898 4.4056 5.99935C4.50523 5.89972 4.64035 5.84375 4.78125 5.84375H7.4375C7.5784 5.84375 7.71352 5.89972 7.81315 5.99935C7.91278 6.09898 7.96875 6.2341 7.96875 6.375C7.96875 6.5159 7.91278 6.65102 7.81315 6.75065C7.71352 6.85028 7.5784 6.90625 7.4375 6.90625Z" fill="#F5F5F5"/>
  <path d="M10.0938 9.03125H4.78125C4.64035 9.03125 4.50523 8.97528 4.4056 8.87565C4.30597 8.77602 4.25 8.6409 4.25 8.5C4.25 8.3591 4.30597 8.22398 4.4056 8.12435C4.50523 8.02472 4.64035 7.96875 4.78125 7.96875H10.0938C10.2346 7.96875 10.3698 8.02472 10.4694 8.12435C10.569 8.22398 10.625 8.3591 10.625 8.5C10.625 8.6409 10.569 8.77602 10.4694 8.87565C10.3698 8.97528 10.2346 9.03125 10.0938 9.03125Z" fill="#BDBDBD"/>
  <path d="M7.96858 13.2812V13.4831L5.07327 14.9334C4.95833 15.0026 4.87381 15.1127 4.83668 15.2416C4.79955 15.3705 4.81255 15.5086 4.87307 15.6283C4.9336 15.7481 5.03717 15.8404 5.16299 15.8869C5.28881 15.9334 5.42756 15.9306 5.55139 15.8791L7.96858 14.6731V14.875C7.96858 15.0159 8.02455 15.151 8.12418 15.2507C8.22381 15.3503 8.35893 15.4062 8.49983 15.4062V12.75C8.35893 12.75 8.22381 12.806 8.12418 12.9056C8.02455 13.0052 7.96858 13.1404 7.96858 13.2812Z" fill="#616161"/>
  <path d="M5.31251 10.625C5.20763 10.6255 5.10525 10.6571 5.01827 10.7157C4.9313 10.7743 4.86362 10.8574 4.82376 10.9544C4.78308 11.0511 4.77197 11.1578 4.79182 11.2608C4.81168 11.3639 4.86161 11.4587 4.93533 11.5334L6.52908 13.1272C6.57872 13.1764 6.63759 13.2154 6.70231 13.2418C6.76704 13.2683 6.83635 13.2817 6.90626 13.2812H8.50001V10.625H5.31251Z" fill="#FFA000"/>
  <path d="M2.65625 1.0625C2.23356 1.0625 1.82818 1.23041 1.5293 1.5293C1.23041 1.82818 1.0625 2.23356 1.0625 2.65625V10.0938C1.0625 10.5164 1.23041 10.9218 1.5293 11.2207C1.82818 11.5196 2.23356 11.6875 2.65625 11.6875H8.5V1.0625H2.65625Z" fill="#78909C"/>
  <path d="M4.78125 3.71875C4.64035 3.71875 4.50523 3.77472 4.4056 3.87435C4.30597 3.97398 4.25 4.1091 4.25 4.25C4.25 4.3909 4.30597 4.52602 4.4056 4.62565C4.50523 4.72528 4.64035 4.78125 4.78125 4.78125H8.5V3.71875H4.78125Z" fill="#F5F5F5"/>
  <path d="M7.4375 5.84375H4.78125C4.64035 5.84375 4.50523 5.89972 4.4056 5.99935C4.30597 6.09898 4.25 6.2341 4.25 6.375C4.25 6.5159 4.30597 6.65102 4.4056 6.75065C4.50523 6.85028 4.64035 6.90625 4.78125 6.90625H7.4375C7.5784 6.90625 7.71352 6.85028 7.81315 6.75065C7.91278 6.65102 7.96875 6.5159 7.96875 6.375C7.96875 6.2341 7.91278 6.09898 7.81315 5.99935C7.71352 5.89972 7.5784 5.84375 7.4375 5.84375Z" fill="#F5F5F5"/>
  <path d="M4.78125 7.96875C4.64035 7.96875 4.50523 8.02472 4.4056 8.12435C4.30597 8.22398 4.25 8.3591 4.25 8.5C4.25 8.6409 4.30597 8.77602 4.4056 8.87565C4.50523 8.97528 4.64035 9.03125 4.78125 9.03125H8.5V7.96875H4.78125Z" fill="#F5F5F5"/>
</svg> 