<svg width="19" height="17" viewBox="0 0 19 17" fill="none" xmlns="http://www.w3.org/2000/svg">
<g clip-path="url(#clip0_335_3406)">
<path d="M0.791016 10.2702C0.791016 8.6209 1.76025 7.17413 3.21689 6.36103C3.61306 3.57218 6.27478 1.41602 9.49935 1.41602C12.7239 1.41602 15.3856 3.57218 15.7818 6.36103C17.2384 7.17413 18.2077 8.6209 18.2077 10.2702C18.2077 12.6938 16.1147 14.6801 13.4577 14.861L5.54102 14.8743C2.88401 14.6801 0.791016 12.6938 0.791016 10.2702ZM13.3376 13.4483C15.1849 13.3226 16.6243 11.9391 16.6243 10.2702C16.6243 9.15597 15.9818 8.14249 14.9437 7.563L14.3059 7.20692L14.2111 6.53966C13.9117 4.43212 11.8971 2.83268 9.49935 2.83268C7.10152 2.83268 5.08697 4.43212 4.78759 6.53966L4.69279 7.20692L4.05496 7.563C3.01683 8.14249 2.37435 9.15597 2.37435 10.2702C2.37435 11.9391 3.81386 13.3226 5.66111 13.4483L5.79831 13.4577H13.2004L13.3376 13.4483ZM10.291 9.20768V12.041H8.70768V9.20768H6.33268L9.49935 5.66602L12.666 9.20768H10.291Z" fill="white"/>
</g>
<defs>
<clipPath id="clip0_335_3406">
<rect width="19" height="17" fill="white"/>
</clipPath>
</defs>
</svg>
