<svg xmlns="http://www.w3.org/2000/svg" width="18" height="17" viewBox="0 0 18 17" fill="none">
  <path d="M0.750977 10.2709C0.750977 8.62163 1.66919 7.17486 3.04917 6.36176C3.42449 3.57291 5.94612 1.41675 9.00098 1.41675C12.0558 1.41675 14.5775 3.57291 14.9528 6.36176C16.3328 7.17486 17.251 8.62163 17.251 10.2709C17.251 12.6945 15.2681 14.6808 12.751 14.8617L5.25098 14.8751C2.73381 14.6808 0.750977 12.6945 0.750977 10.2709ZM12.6372 13.4491C14.3873 13.3233 15.751 11.9398 15.751 10.2709C15.751 9.15671 15.1423 8.14322 14.1588 7.56374L13.5545 7.20766L13.4648 6.54039C13.1811 4.43285 11.2726 2.83341 9.00098 2.83341C6.72935 2.83341 4.82083 4.43285 4.5372 6.54039L4.4474 7.20766L3.84314 7.56374C2.85965 8.14322 2.25098 9.15671 2.25098 10.2709C2.25098 11.9398 3.61472 13.3233 5.36475 13.4491L5.49473 13.4584H12.5072L12.6372 13.4491ZM9.75098 9.20841V12.0417H8.25098V9.20841H6.00098L9.00098 5.66675L12.001 9.20841H9.75098Z" fill="white"/>
</svg> 