<svg 
  xmlns="http://www.w3.org/2000/svg" 
  width="18.432" 
  height="18" 
  viewBox="0 0 19 18" 
  fill="none"
  style="flex-shrink: 0; margin-right: 8px;"
>
  <path d="M6.02373 15.4239H4.29573C4.14296 15.4239 3.99645 15.3646 3.88843 15.2591C3.78041 15.1536 3.71973 15.0105 3.71973 14.8614C3.71973 14.7122 3.78041 14.5691 3.88843 14.4636C3.99645 14.3581 4.14296 14.2989 4.29573 14.2989H5.58021L6.02373 12.9939C6.04777 12.9236 6.0858 12.8586 6.13563 12.8027C6.18545 12.7469 6.2461 12.7011 6.31407 12.6682C6.38205 12.6353 6.45601 12.6158 6.53172 12.6109C6.60743 12.6059 6.6834 12.6157 6.75525 12.6395C6.89925 12.687 7.0182 12.7881 7.08617 12.9209C7.15415 13.0536 7.16563 13.2072 7.11813 13.3482L6.54213 15.0357C6.50612 15.1441 6.43728 15.2392 6.34471 15.3085C6.25215 15.3778 6.14021 15.418 6.02373 15.4239Z" fill="#FF8F00"/>
  <path d="M3.71938 15.9863C3.49154 15.9863 3.26881 15.9203 3.07937 15.8417C2.88992 15.718 2.74227 15.5423 2.65507 15.3368C2.56788 15.1312 2.54507 14.905 2.58952 14.6868C2.63397 14.4685 2.74369 14.2681 2.9048 14.1108C3.06591 13.9534 3.27117 13.8463 3.49464 13.8029C3.71811 13.7595 3.94973 13.7817 4.16023 13.8669C4.37074 13.952 4.55065 14.0962 4.67724 14.2812C4.80382 14.4662 4.87138 14.6837 4.87138 14.9063C4.87138 15.2046 4.75001 15.4908 4.53397 15.7017C4.31793 15.9127 4.02491 16.0313 3.71938 16.0313Z" fill="#1565C0"/>
  <path d="M5.44738 4.17384C5.37117 4.17353 5.29579 4.15845 5.22559 4.12949C5.15539 4.10052 5.09177 4.05824 5.03842 4.00509L4.05922 3.04884H3.14338C2.99062 3.04884 2.84411 2.98957 2.73609 2.88408C2.62807 2.7786 2.56738 2.63552 2.56738 2.48634C2.56738 2.33715 2.62807 2.19408 2.73609 2.08859C2.84411 1.9831 2.99062 1.92384 3.14338 1.92384H4.29538C4.37119 1.92341 4.44633 1.9376 4.51651 1.96559C4.58669 1.99358 4.65052 2.03483 4.70434 2.08696L5.85634 3.21196C5.93758 3.29064 5.99298 3.39116 6.01548 3.5007C6.03798 3.61025 6.02657 3.72386 5.9827 3.82705C5.93883 3.93023 5.86448 4.01832 5.76914 4.08009C5.6738 4.14185 5.56179 4.17449 5.44738 4.17384Z" fill="#FF8F00"/>
  <path d="M2.56753 3.61133C2.33968 3.61133 2.11696 3.54535 1.92751 3.42173C1.73807 3.29812 1.59041 3.12241 1.50322 2.91685C1.41603 2.71128 1.39321 2.48508 1.43766 2.26685C1.48211 2.04862 1.59183 1.89309 1.75294 1.73576C1.91405 1.5335 2.11932 1.42635 2.34278 1.42787C2.56625 1.38446 2.79788 1.40674 3.00838 1.49189C3.21888 1.57703 3.3988 1.72123 3.52538 1.90623C3.65196 2.09124 3.71953 2.30875 3.71953 2.53125C3.71953 2.82962 3.59816 3.11577 3.38211 3.32675C3.16607 3.53772 2.87306 3.65625 2.56753 3.65625Z" fill="#1565C0"/>
  <path d="M12.9067 3.61133H14.0587L14.6347 2.48633H15.7867" fill="#F57C00"/>
  <path d="M14.0874 4.17388H12.9354C12.7826 4.17388 12.6361 4.11461 12.5281 4.00912C12.4201 3.90363 12.3594 3.76056 12.3594 3.61138C12.3594 3.46219 12.4201 3.31912 12.5281 3.21363C12.6361 3.10814 12.7826 3.04888 12.9354 3.04888H13.7303L14.1219 2.25013C14.1694 2.14983 14.2461 2.0654 14.3423 2.00738C14.4386 1.94936 14.5503 1.92031 14.6634 1.92388H15.8154C15.9681 1.92388 16.1146 1.98314 16.2227 2.08863C16.3307 2.19412 16.3914 2.33719 16.3914 2.48638C16.3914 2.63556 16.3307 2.77863 16.2227 2.88412C16.1146 2.98961 15.9681 3.04888 15.8154 3.04888H14.9917L14.577 3.85888C14.5317 3.94938 14.4624 4.02635 14.3763 4.08176C14.2902 4.13717 14.1904 4.16898 14.0874 4.17388Z" fill="#F57C00"/>
  <path d="M16.4206 3.70703C16.1927 3.70703 15.97 3.64105 15.7805 3.51744C15.5911 3.39382 15.4434 3.21812 15.3562 3.01255C15.2691 2.80698 15.2462 2.58078 15.2907 2.36256C15.3351 2.14433 15.4449 1.94387 15.606 1.78654C15.7671 1.6292 15.9723 1.52206 16.1958 1.47865C16.4193 1.43524 16.6509 1.45752 16.8614 1.54267C17.0719 1.62782 17.2518 1.77201 17.3784 1.95702C17.505 2.14202 17.5726 2.35953 17.5726 2.58203C17.5726 2.8804 17.4512 3.16655 17.2351 3.37753C17.0191 3.58851 16.7261 3.70703 16.4206 3.70703Z" fill="#1565C0"/>
  <path d="M16.547 13.6688L14.243 11.4188L13.5115 10.4963C13.4605 10.4363 13.3973 10.3874 13.3259 10.3525C13.2545 10.3176 13.1765 10.2977 13.0967 10.2938C13.0175 10.2896 12.9382 10.3014 12.8639 10.3285C12.7896 10.3556 12.7218 10.3974 12.6647 10.4513L10.8388 12.2176C10.7844 12.2697 10.7411 12.3318 10.7114 12.4003C10.6818 12.4689 10.6663 12.5425 10.666 12.6169C10.6656 12.691 10.6801 12.7643 10.7088 12.8329C10.7374 12.9014 10.7797 12.9637 10.8331 13.0163L14.0183 16.1438C14.3421 16.4604 14.7813 16.6384 15.2395 16.6388C15.6976 16.6384 16.1368 16.4604 16.4606 16.1438L16.5585 16.0482C16.8788 15.7305 17.0574 15.302 17.0552 14.8562C17.0531 14.4104 16.8704 13.9835 16.547 13.6688Z" fill="#304046"/>
  <path d="M9.45075 14.2988C12.95 14.2988 15.7867 11.5286 15.7867 8.11133C15.7867 4.69407 12.95 1.92383 9.45075 1.92383C5.95147 1.92383 3.11475 4.69407 3.11475 8.11133C3.11475 11.5286 5.95147 14.2988 9.45075 14.2988Z" fill="#01579B"/>
  <path d="M9.45095 12.0488C11.6778 12.0488 13.4829 10.2859 13.4829 8.11133C13.4829 5.93671 11.6778 4.17383 9.45095 4.17383C7.22413 4.17383 5.41895 5.93671 5.41895 8.11133C5.41895 10.2859 7.22413 12.0488 9.45095 12.0488Z" fill="#BBDEFB"/>
  <path d="M6.02373 15.4689H4.29573C4.14296 15.4689 3.99645 15.4096 3.88843 15.3042C3.78041 15.1987 3.71973 15.0556 3.71973 14.9064C3.71973 14.7572 3.78041 14.6141 3.88843 14.5087C3.99645 14.4032 4.14296 14.3439 4.29573 14.3439H5.60901L6.05253 13.0389C6.10141 12.8972 6.20595 12.7802 6.34313 12.7138C6.48032 12.6473 6.63892 12.6368 6.78405 12.6845C6.92917 12.7323 7.04894 12.8344 7.11699 12.9683C7.18504 13.1023 7.19581 13.2572 7.14693 13.3989L6.57093 15.0864C6.53229 15.1981 6.45867 15.2952 6.36047 15.3638C6.26228 15.4324 6.14448 15.4692 6.02373 15.4689Z" fill="#FF8F00"/>
  <path d="M3.71938 16.0313C3.49154 16.0313 3.26881 15.9653 3.07937 15.8417C2.88992 15.718 2.74227 15.5423 2.65507 15.3368C2.56788 15.1312 2.54507 14.905 2.58952 14.6868C2.63397 14.4685 2.74369 14.2681 2.9048 14.1108C3.06591 13.9534 3.27117 13.8463 3.49464 13.8029C3.71811 13.7595 3.94973 13.7817 4.16023 13.8669C4.37074 13.952 4.55065 14.0962 4.67724 14.2812C4.80382 14.4662 4.87138 14.6837 4.87138 14.9063C4.87138 15.2046 4.75001 15.4908 4.53397 15.7017C4.31793 15.9127 4.02491 16.0313 3.71938 16.0313Z" fill="#0277BD"/>
  <path d="M5.44738 4.21876C5.37158 4.21919 5.29643 4.205 5.22625 4.17701C5.15607 4.14901 5.09224 4.10777 5.03842 4.05563L4.05922 3.09376H3.14338C2.99062 3.09376 2.84411 3.0345 2.73609 2.92901C2.62807 2.82352 2.56738 2.68044 2.56738 2.53126C2.56738 2.38208 2.62807 2.239 2.73609 2.13351C2.84411 2.02802 2.99062 1.96876 3.14338 1.96876H4.29538C4.37119 1.96833 4.44633 1.98252 4.51651 2.01051C4.58669 2.03851 4.65052 2.07975 4.70434 2.13188L5.85634 3.25688C5.91033 3.30918 5.95318 3.37139 5.98242 3.43993C6.01167 3.50848 6.02672 3.582 6.02672 3.65626C6.02672 3.73052 6.01167 3.80404 5.98242 3.87258C5.95318 3.94113 5.91033 4.00334 5.85634 4.05563C5.80252 4.10777 5.73869 4.14901 5.66851 4.17701C5.59833 4.205 5.52319 4.21919 5.44738 4.21876Z" fill="#FF8F00"/>
  <path d="M2.56753 3.65625C2.33968 3.65625 2.11696 3.59027 1.92751 3.46665C1.73807 3.34304 1.59041 3.16734 1.50322 2.96177C1.41603 2.7562 1.39321 2.53 1.43766 2.31177C1.48211 2.09355 1.59183 1.89309 1.75294 1.73576C1.91405 1.57842 2.11932 1.47128 2.34278 1.42787C2.56625 1.38446 2.79788 1.40674 3.00838 1.49189C3.21888 1.57703 3.3988 1.72123 3.52538 1.90623C3.65196 2.09124 3.71953 2.30875 3.71953 2.53125C3.71953 2.82962 3.59816 3.11577 3.38211 3.32675C3.16607 3.53772 2.87306 3.65625 2.56753 3.65625Z" fill="#0277BD"/>
  <path d="M3.14355 8.15625C3.14355 9.79728 3.8111 11.3711 4.99933 12.5315C6.18756 13.6919 7.79914 14.3438 9.47955 14.3438V1.96875C7.79914 1.96875 6.18756 2.62065 4.99933 3.78103C3.8111 4.94141 3.14355 6.51522 3.14355 8.15625Z" fill="#0277BD"/>
  <path d="M5.44775 8.15625C5.44775 9.20054 5.87255 10.2021 6.6287 10.9405C7.38485 11.6789 8.4104 12.0938 9.47975 12.0938V4.21875C8.4104 4.21875 7.38485 4.63359 6.6287 5.37202C5.87255 6.11044 5.44775 7.11196 5.44775 8.15625Z" fill="#E3F2FD"/>
</svg> 