<svg width="20" height="20" viewBox="0 0 20 20" fill="none" xmlns="http://www.w3.org/2000/svg">
<path d="M15 18.3327C14.3056 18.3327 13.7153 18.0896 13.2292 17.6035C12.7431 17.1174 12.5 16.5271 12.5 15.8327C12.5 15.7355 12.5069 15.6348 12.5208 15.5306C12.5347 15.4264 12.5556 15.3327 12.5833 15.2494L6.70833 11.8327C6.47222 12.041 6.20833 12.2042 5.91667 12.3223C5.625 12.4403 5.31944 12.4993 5 12.4993C4.30556 12.4993 3.71528 12.2563 3.22917 11.7702C2.74306 11.2841 2.5 10.6938 2.5 9.99935C2.5 9.3049 2.74306 8.71463 3.22917 8.22852C3.71528 7.7424 4.30556 7.49935 5 7.49935C5.31944 7.49935 5.625 7.55838 5.91667 7.67643C6.20833 7.79449 6.47222 7.95768 6.70833 8.16602L12.5833 4.74935C12.5556 4.66602 12.5347 4.57227 12.5208 4.4681C12.5069 4.36393 12.5 4.26324 12.5 4.16602C12.5 3.47157 12.7431 2.88129 13.2292 2.39518C13.7153 1.90907 14.3056 1.66602 15 1.66602C15.6944 1.66602 16.2847 1.90907 16.7708 2.39518C17.2569 2.88129 17.5 3.47157 17.5 4.16602C17.5 4.86046 17.2569 5.45074 16.7708 5.93685C16.2847 6.42296 15.6944 6.66602 15 6.66602C14.6806 6.66602 14.375 6.60699 14.0833 6.48893C13.7917 6.37088 13.5278 6.20768 13.2917 5.99935L7.41667 9.41602C7.44444 9.49935 7.46528 9.5931 7.47917 9.69727C7.49306 9.80143 7.5 9.90213 7.5 9.99935C7.5 10.0966 7.49306 10.1973 7.47917 10.3014C7.46528 10.4056 7.44444 10.4993 7.41667 10.5827L13.2917 13.9993C13.5278 13.791 13.7917 13.6278 14.0833 13.5098C14.375 13.3917 14.6806 13.3327 15 13.3327C15.6944 13.3327 16.2847 13.5757 16.7708 14.0618C17.2569 14.548 17.5 15.1382 17.5 15.8327C17.5 16.5271 17.2569 17.1174 16.7708 17.6035C16.2847 18.0896 15.6944 18.3327 15 18.3327ZM15 4.99935C15.2361 4.99935 15.434 4.91949 15.5938 4.75977C15.7535 4.60004 15.8333 4.40213 15.8333 4.16602C15.8333 3.9299 15.7535 3.73199 15.5938 3.57227C15.434 3.41254 15.2361 3.33268 15 3.33268C14.7639 3.33268 14.566 3.41254 14.4062 3.57227C14.2465 3.73199 14.1667 3.9299 14.1667 4.16602C14.1667 4.40213 14.2465 4.60004 14.4062 4.75977C14.566 4.91949 14.7639 4.99935 15 4.99935ZM5 10.8327C5.23611 10.8327 5.43403 10.7528 5.59375 10.5931C5.75347 10.4334 5.83333 10.2355 5.83333 9.99935C5.83333 9.76324 5.75347 9.56532 5.59375 9.4056C5.43403 9.24588 5.23611 9.16602 5 9.16602C4.76389 9.16602 4.56597 9.24588 4.40625 9.4056C4.24653 9.56532 4.16667 9.76324 4.16667 9.99935C4.16667 10.2355 4.24653 10.4334 4.40625 10.5931C4.56597 10.7528 4.76389 10.8327 5 10.8327ZM15 16.666C15.2361 16.666 15.434 16.5862 15.5938 16.4264C15.7535 16.2667 15.8333 16.0688 15.8333 15.8327C15.8333 15.5966 15.7535 15.3987 15.5938 15.2389C15.434 15.0792 15.2361 14.9993 15 14.9993C14.7639 14.9993 14.566 15.0792 14.4062 15.2389C14.2465 15.3987 14.1667 15.5966 14.1667 15.8327C14.1667 16.0688 14.2465 16.2667 14.4062 16.4264C14.566 16.5862 14.7639 16.666 15 16.666Z" fill="#79747E"/>
</svg>
