<svg width="53" height="51" viewBox="0 0 53 51" fill="none" xmlns="http://www.w3.org/2000/svg">
<path d="M25.3252 2.51346C25.3252 1.92665 25.7869 1.45096 26.3564 1.45096H27.2164C27.7859 1.45096 28.2476 1.92666 28.2476 2.51346V11.3744C28.2476 11.9612 27.7859 12.4369 27.2164 12.4369H26.3564C25.7869 12.4369 25.3252 11.9612 25.3252 11.3744V2.51346Z" fill="white"/>
<path fill-rule="evenodd" clip-rule="evenodd" d="M26.3564 0.388458H27.2164C28.3554 0.388458 29.2789 1.33985 29.2789 2.51346V11.3744C29.2789 12.548 28.3554 13.4994 27.2164 13.4994H26.3564C25.2174 13.4994 24.2939 12.548 24.2939 11.3744V2.51346C24.2939 1.33985 25.2174 0.388458 26.3564 0.388458ZM26.3564 1.45096C25.7869 1.45096 25.3252 1.92665 25.3252 2.51346V11.3744C25.3252 11.9612 25.7869 12.4369 26.3564 12.4369H27.2164C27.7859 12.4369 28.2476 11.9612 28.2476 11.3744V2.51346C28.2476 1.92666 27.7859 1.45096 27.2164 1.45096H26.3564Z" fill="#282828"/>
<path d="M33.5671 27.2342L38.5224 48.5013C38.7585 49.5483 37.9869 50.5491 36.9436 50.5491H36.7213C36.0328 50.5491 35.4193 50.1009 35.1916 49.4314L27.9313 28.1644C27.562 27.0784 28.3442 25.9421 29.461 25.9421H31.9883C32.7422 25.9421 33.3965 26.4776 33.5671 27.2342Z" fill="#282828"/>
<path d="M18.7676 27.2342L13.8123 48.5013C13.5762 49.5483 14.3478 50.5491 15.3912 50.5491H15.6134C16.302 50.5491 16.9154 50.1009 17.1431 49.4314L24.4034 28.1644C24.7728 27.0784 23.9905 25.9421 22.8737 25.9421H20.3465C19.5925 25.9421 18.9382 26.4776 18.7676 27.2342Z" fill="#282828"/>
<path d="M24.0441 26.645L24.7326 47.6558C24.7703 48.5188 25.4603 49.1985 26.2988 49.1985C27.1237 49.1985 27.8075 48.5399 27.8629 47.6919L29.1295 26.692C29.2091 25.4753 28.2726 24.4432 27.0889 24.4432H26.0873C24.9217 24.4432 23.9918 25.4453 24.0441 26.645Z" fill="#282828"/>
<path d="M3.3479 7.05985C3.3479 6.47304 3.80961 5.99734 4.37915 5.99734H48.1668C48.7364 5.99734 49.1981 6.47304 49.1981 7.05985V34.2307C49.1981 34.8175 48.7364 35.2932 48.1668 35.2932H4.37915C3.8096 35.2932 3.3479 34.8175 3.3479 34.2307V7.05985Z" fill="white"/>
<path fill-rule="evenodd" clip-rule="evenodd" d="M4.37915 4.93484H48.1668C49.3059 4.93484 50.2293 5.88624 50.2293 7.05985V34.2307C50.2293 35.4043 49.3059 36.3557 48.1668 36.3557H4.37915C3.24006 36.3557 2.31665 35.4043 2.31665 34.2307V7.05985C2.31665 5.88624 3.24006 4.93484 4.37915 4.93484ZM4.37915 5.99735C3.80961 5.99735 3.3479 6.47304 3.3479 7.05985V34.2307C3.3479 34.8175 3.8096 35.2932 4.37915 35.2932H48.1668C48.7364 35.2932 49.1981 34.8175 49.1981 34.2307V7.05985C49.1981 6.47304 48.7364 5.99735 48.1668 5.99735H4.37915Z" fill="#282828"/>
<path d="M8.73853 33.7515C8.73853 33.1647 9.20023 32.689 9.76978 32.689H14.105C14.6745 32.689 15.1362 33.1647 15.1362 33.7515V34.2306C15.1362 34.8174 14.6745 35.2931 14.105 35.2931H9.76978C9.20023 35.2931 8.73853 34.8174 8.73853 34.2306V33.7515Z" fill="#282828"/>
<path d="M1.84717 4.98014C1.84717 4.41834 2.2892 3.96292 2.83447 3.96292H50.7974C51.3427 3.96292 51.7847 4.41834 51.7847 4.98014C51.7847 5.54193 51.3427 5.99736 50.7974 5.99736H2.83447C2.2892 5.99736 1.84717 5.54193 1.84717 4.98014Z" fill="white"/>
<path fill-rule="evenodd" clip-rule="evenodd" d="M2.83447 2.90042H50.7974C51.9123 2.90042 52.816 3.83154 52.816 4.98014C52.816 6.12873 51.9123 7.05986 50.7974 7.05986H2.83447C1.71966 7.05986 0.815918 6.12874 0.815918 4.98014C0.815918 3.83154 1.71965 2.90042 2.83447 2.90042ZM2.83447 3.96292C2.2892 3.96292 1.84717 4.41834 1.84717 4.98014C1.84717 5.54193 2.2892 5.99736 2.83447 5.99736H50.7974C51.3427 5.99736 51.7847 5.54193 51.7847 4.98014C51.7847 4.41834 51.3427 3.96292 50.7974 3.96292H2.83447Z" fill="#282828"/>
<path d="M1.84717 36.3104C1.84717 35.7486 2.2892 35.2932 2.83447 35.2932H50.7974C51.3427 35.2932 51.7847 35.7486 51.7847 36.3104C51.7847 36.8722 51.3427 37.3276 50.7974 37.3276H2.83447C2.2892 37.3276 1.84717 36.8722 1.84717 36.3104Z" fill="white"/>
<path fill-rule="evenodd" clip-rule="evenodd" d="M2.83447 34.2307H50.7974C51.9123 34.2307 52.816 35.1618 52.816 36.3104C52.816 37.459 51.9123 38.3901 50.7974 38.3901H2.83447C1.71966 38.3901 0.815918 37.459 0.815918 36.3104C0.815918 35.1618 1.71965 34.2307 2.83447 34.2307ZM2.83447 35.2932C2.2892 35.2932 1.84717 35.7486 1.84717 36.3104C1.84717 36.8722 2.2892 37.3276 2.83447 37.3276H50.7974C51.3427 37.3276 51.7847 36.8722 51.7847 36.3104C51.7847 35.7486 51.3427 35.2932 50.7974 35.2932H2.83447Z" fill="#282828"/>
<path fill-rule="evenodd" clip-rule="evenodd" d="M11.3445 16.6557C11.3445 16.3623 11.5753 16.1245 11.8601 16.1245H15.859C16.1437 16.1245 16.3746 16.3623 16.3746 16.6557C16.3746 16.9491 16.1437 17.187 15.859 17.187H12.3757V22.7603H15.859C16.1437 22.7603 16.3746 22.9981 16.3746 23.2915C16.3746 23.5849 16.1437 23.8228 15.859 23.8228H11.8601C11.5753 23.8228 11.3445 23.5849 11.3445 23.2915V16.6557Z" fill="#282828"/>
<path fill-rule="evenodd" clip-rule="evenodd" d="M18.0122 19.6405C18.0122 19.3471 18.2431 19.1092 18.5278 19.1092H21.4564C21.7411 19.1092 21.972 19.3471 21.972 19.6405C21.972 19.9339 21.7411 20.1717 21.4564 20.1717H18.5278C18.2431 20.1717 18.0122 19.9339 18.0122 19.6405Z" fill="#282828"/>
<path fill-rule="evenodd" clip-rule="evenodd" d="M18.0122 21.5112C18.0122 21.2178 18.2431 20.9799 18.5278 20.9799H21.4564C21.7411 20.9799 21.972 21.2178 21.972 21.5112C21.972 21.8046 21.7411 22.0424 21.4564 22.0424H18.5278C18.2431 22.0424 18.0122 21.8046 18.0122 21.5112Z" fill="#282828"/>
<path fill-rule="evenodd" clip-rule="evenodd" d="M11.9888 19.7566C11.9888 19.4632 12.2196 19.2253 12.5044 19.2253H15.0383C15.3231 19.2253 15.5539 19.4632 15.5539 19.7566C15.5539 20.05 15.3231 20.2878 15.0383 20.2878H12.5044C12.2196 20.2878 11.9888 20.05 11.9888 19.7566Z" fill="#282828"/>
<path fill-rule="evenodd" clip-rule="evenodd" d="M33.88 18.756C34.313 18.1557 34.9758 17.8343 35.8204 17.8343C36.5049 17.8342 36.9966 18.1382 37.3222 18.5097C37.635 18.8667 37.7903 19.2783 37.8561 19.5354C37.9287 19.8191 37.7643 20.1098 37.4889 20.1846C37.2136 20.2594 36.9315 20.09 36.8589 19.8063C36.8206 19.6568 36.7267 19.4157 36.5567 19.2217C36.3995 19.0422 36.1747 18.8967 35.8205 18.8968C35.2525 18.8968 34.9184 19.0977 34.7076 19.3899C34.4779 19.7083 34.3421 20.2093 34.342 20.8907C34.3419 21.5483 34.5136 22.0255 34.7628 22.3289C35.0044 22.623 35.3544 22.7988 35.8204 22.7988C36.3195 22.7988 36.6585 22.4638 36.8898 21.9507C37.0098 21.6846 37.3165 21.5691 37.5747 21.6927C37.833 21.8164 37.9451 22.1323 37.8251 22.3984C37.5161 23.0837 36.8999 23.8613 35.8204 23.8613C35.0754 23.8613 34.4283 23.5664 33.9756 23.0152C33.5305 22.4734 33.3107 21.7308 33.3108 20.8906C33.3109 20.0916 33.4659 19.3301 33.88 18.756Z" fill="#282828"/>
<path fill-rule="evenodd" clip-rule="evenodd" d="M40.4392 15.1273C41.0101 15.1691 41.5885 15.5154 41.8305 16.1282C42.0068 16.5746 41.9912 16.9754 41.8535 17.3259C41.7312 17.6371 41.5206 17.8801 41.381 18.0413C41.3779 18.0449 41.3749 18.0484 41.3719 18.0518C41.3617 18.0636 41.351 18.0748 41.3399 18.0856L40.5594 18.84H41.7723C42.0571 18.84 42.2879 19.0779 42.2879 19.3713C42.2879 19.6647 42.0571 19.9025 41.7723 19.9025H39.2561C39.0446 19.9025 38.8545 19.7694 38.7767 19.5667C38.6988 19.3641 38.7491 19.133 38.9033 18.9838L40.6174 17.3271C40.7634 17.1578 40.8515 17.0445 40.8976 16.9271C40.9325 16.8383 40.9526 16.7243 40.8753 16.5286C40.8051 16.3507 40.6117 16.2051 40.3662 16.1872C40.1409 16.1707 39.9127 16.2665 39.7724 16.5346C39.6373 16.7928 39.3245 16.8893 39.0739 16.75C38.8232 16.6108 38.7296 16.2885 38.8647 16.0303C39.2152 15.3607 39.848 15.0841 40.4392 15.1273Z" fill="#282828"/>
<path fill-rule="evenodd" clip-rule="evenodd" d="M24.3228 18.0268C24.6075 18.0268 24.8384 18.2646 24.8384 18.558V23.33C24.8384 23.6234 24.6075 23.8613 24.3228 23.8613C24.038 23.8613 23.8071 23.6234 23.8071 23.33V18.558C23.8071 18.2646 24.038 18.0268 24.3228 18.0268Z" fill="#282828"/>
<path fill-rule="evenodd" clip-rule="evenodd" d="M23.8071 20.6127C23.8072 19.297 25.0621 18.1423 26.5274 18.3984C27.1849 18.5133 27.6018 18.9417 27.8434 19.3803C28.0786 19.8074 28.1685 20.2749 28.1817 20.5898C28.182 20.5974 28.1822 20.6051 28.1822 20.6127V23.3516C28.1822 23.645 27.9513 23.8829 27.6665 23.8829C27.3818 23.8829 27.1509 23.645 27.1509 23.3516V20.6253C27.1416 20.4437 27.0836 20.1536 26.9465 19.9047C26.8132 19.6627 26.6278 19.4936 26.3549 19.4459C25.4939 19.2955 24.8384 19.9809 24.8384 20.6127C24.8384 20.9061 24.6075 21.144 24.3227 21.1439C24.038 21.1439 23.8071 20.9061 23.8071 20.6127Z" fill="#282828"/>
<path fill-rule="evenodd" clip-rule="evenodd" d="M27.1509 20.6127C27.1509 19.297 28.4059 18.1423 29.8711 18.3984C30.5287 18.5133 30.9456 18.9417 31.1872 19.3803C31.4224 19.8074 31.5122 20.2749 31.5254 20.5898C31.5258 20.5974 31.5259 20.6051 31.5259 20.6127V23.3516C31.5259 23.645 31.2951 23.8829 31.0103 23.8829C30.7255 23.8829 30.4947 23.645 30.4947 23.3516V20.6253C30.4854 20.4437 30.4273 20.1536 30.2903 19.9047C30.157 19.6627 29.9715 19.4936 29.6986 19.4459C28.8377 19.2955 28.1822 19.9809 28.1821 20.6127C28.1821 20.9061 27.9513 21.144 27.6665 21.1439C27.3817 21.1439 27.1509 20.9061 27.1509 20.6127Z" fill="#282828"/>
</svg>
