<svg width="24" height="24" viewBox="0 0 24 24" fill="none" xmlns="http://www.w3.org/2000/svg">
<path d="M18.9751 19.9503H5.02515C3.75015 19.9503 2.77515 18.9003 2.77515 17.7003V6.30029C2.77515 5.02529 3.82515 4.05029 5.02515 4.05029H8.02515C9.30015 4.05029 10.2751 5.10029 10.2751 6.30029V6.90029C10.2751 7.05029 10.4251 7.12529 10.5001 7.12529H18.8251C20.1001 7.12529 21.0751 8.17529 21.0751 9.37529V17.6253C21.2251 18.9003 20.1751 19.9503 18.9751 19.9503ZM5.02515 5.55029C4.57515 5.55029 4.27515 5.92529 4.27515 6.30029V17.6253C4.27515 18.0753 4.65015 18.3753 5.02515 18.3753H18.9001C19.3501 18.3753 19.6501 18.0003 19.6501 17.6253V9.37529C19.6501 8.92529 19.2751 8.62529 18.9001 8.62529H10.5751C9.60015 8.62529 8.85015 7.80029 8.85015 6.90029V6.30029C8.85015 5.85029 8.47515 5.55029 8.10015 5.55029H5.02515Z" fill="#515063"/>
</svg>
