<svg width="67" height="64" viewBox="0 0 67 64" fill="none" xmlns="http://www.w3.org/2000/svg">
<path d="M1.28125 39.691C1.28125 37.4833 1.8509 36.3341 2.93407 35.457L36.2279 50.034C34.5461 55.4777 35.9473 60.389 37.6246 61.7682L3.61863 45.2859C2.65417 44.4851 1.28125 42.5036 1.28125 39.691Z" fill="white"/>
<path fill-rule="evenodd" clip-rule="evenodd" d="M2.15677 34.3764C2.51922 34.0829 3.00136 34.0159 3.42282 34.2005L36.7166 48.7774C37.3365 49.0488 37.6543 49.7814 37.4454 50.4574C36.6722 52.9603 36.6144 55.3213 36.9279 57.1866C37.2538 59.1253 37.9355 60.304 38.4095 60.6937C38.9237 61.1165 39.0576 61.881 38.721 62.4716C38.3843 63.0623 37.6839 63.2914 37.0922 63.0046L3.08624 46.5224C2.99464 46.478 2.90829 46.4223 2.82898 46.3564C1.59387 45.3309 0 42.9723 0 39.691C0 38.4704 0.156404 37.4294 0.527872 36.5296C0.907817 35.6093 1.47471 34.9287 2.15677 34.3764ZM3.61863 45.2859C2.65417 44.4851 1.28125 42.5036 1.28125 39.691C1.28125 37.4833 1.8509 36.3341 2.93407 35.457L36.2279 50.034C35.059 53.8175 35.3794 57.3438 36.2466 59.6058C36.6272 60.5984 37.1131 61.3476 37.6246 61.7682L3.61863 45.2859Z" fill="#282828"/>
<path d="M65.416 21.5729L33.2114 8.35938L2.76807 35.5872L37.7402 51.2031L65.416 21.5729Z" fill="#E6E6E6"/>
<path fill-rule="evenodd" clip-rule="evenodd" d="M32.3856 7.32004C32.7434 7.00006 33.2371 6.91246 33.6736 7.09152L65.8781 20.305C66.2813 20.4704 66.5787 20.8404 66.669 21.2889C66.7593 21.7374 66.6303 22.204 66.3261 22.5298L38.6503 52.16C38.2822 52.5541 37.7252 52.6713 37.2432 52.4561L2.27108 36.8401C1.86004 36.6566 1.56852 36.2595 1.50142 35.7917C1.43433 35.3239 1.60131 34.8528 1.94229 34.5478L32.3856 7.32004ZM33.2114 8.35939L65.416 21.5729L37.7402 51.2032L2.76809 35.5872L33.2114 8.35939Z" fill="#404040"/>
<path d="M47.0026 24.6757L32.9213 18.8086L30.2183 21.2692L44.1806 27.4731L47.0026 24.6757Z" fill="white" stroke="black" stroke-width="0.8" stroke-linecap="round" stroke-linejoin="round"/>
<path d="M65.3878 31.7066C62.3093 29.0452 62.8794 24.781 65.2453 21.6357L36.4554 50.4873C34.6882 54.9934 36.1223 59.3502 37.6528 61.7527L65.3878 31.7066Z" fill="white"/>
<path fill-rule="evenodd" clip-rule="evenodd" d="M66.113 20.6353C66.6081 21.1186 66.6666 21.9258 66.247 22.4837C65.1977 23.8786 64.5987 25.4568 64.5558 26.8956C64.5142 28.2885 64.9853 29.6049 66.1974 30.6527C66.4766 30.8941 66.6471 31.2489 66.6673 31.6304C66.6875 32.0119 66.5554 32.3847 66.3034 32.6577L38.5685 62.7038C38.2992 62.9955 37.9207 63.1433 37.5376 63.1065C37.1544 63.0697 36.807 62.8521 36.5916 62.5139C34.909 59.8728 33.2868 55.0289 35.2727 49.9651C35.3418 49.7889 35.4451 49.6301 35.5759 49.499L64.3658 20.6475C64.8548 20.1574 65.6179 20.1521 66.113 20.6353ZM65.2455 21.6357L36.4556 50.4873C34.9546 54.3148 35.7632 58.0345 36.9787 60.5404C37.1943 60.9847 37.4226 61.3908 37.6531 61.7527L65.3881 31.7066C65.072 31.4333 64.7944 31.1432 64.5533 30.8391C63.2738 29.2258 63.0205 27.2198 63.4939 25.2611C63.8003 23.9931 64.4113 22.7448 65.2455 21.6357Z" fill="#282828"/>
<path fill-rule="evenodd" clip-rule="evenodd" d="M63.5964 31.3554C63.8424 31.6251 63.8358 32.0554 63.5816 32.3165L43.9705 52.4581C43.7163 52.7192 43.3107 52.7122 43.0646 52.4425C42.8185 52.1728 42.8251 51.7425 43.0793 51.4814L62.6905 31.3398C62.9447 31.0787 63.3503 31.0857 63.5964 31.3554Z" fill="#282828"/>
<path fill-rule="evenodd" clip-rule="evenodd" d="M62.4655 29.6724C62.7061 29.9476 62.691 30.3777 62.4316 30.633L49.7756 43.093C49.5162 43.3483 49.1109 43.3322 48.8703 43.0571C48.6296 42.7819 48.6447 42.3519 48.9041 42.0965L61.5601 29.6365C61.8195 29.3812 62.2248 29.3973 62.4655 29.6724Z" fill="#282828"/>
<path fill-rule="evenodd" clip-rule="evenodd" d="M8.21188 43.4695C8.35044 43.1241 8.72668 42.9633 9.05222 43.1103L21.2572 48.6219C21.5828 48.7689 21.7344 49.1681 21.5958 49.5135C21.4572 49.8589 21.081 50.0197 20.7555 49.8727L8.55045 44.3611C8.2249 44.2141 8.07332 43.8149 8.21188 43.4695Z" fill="#282828"/>
</svg>
