<svg width="70" height="55" viewBox="0 0 70 55" fill="none" xmlns="http://www.w3.org/2000/svg">
<path d="M6.535 15.1742C6.3207 14.4952 6.66423 13.7599 7.3023 13.5319L33.574 4.14266C34.2121 3.91462 34.9031 4.28018 35.1174 4.95915L46.6289 41.4311C46.8432 42.11 46.4996 42.8453 45.8616 43.0734L19.5898 52.4626C18.9518 52.6906 18.2608 52.325 18.0465 51.6461L6.535 15.1742Z" fill="#282828"/>
<path d="M3.52011 13.5699C3.30581 12.891 3.64934 12.1557 4.28741 11.9276L30.5591 2.53844C31.1972 2.3104 31.8882 2.67596 32.1025 3.35493L43.614 39.8268C43.8283 40.5058 43.4848 41.2411 42.8467 41.4691L16.575 50.8583C15.9369 51.0864 15.2459 50.7208 15.0316 50.0418L3.52011 13.5699Z" fill="white"/>
<path fill-rule="evenodd" clip-rule="evenodd" d="M3.89928 10.6983L30.171 1.30908C31.4472 0.852998 32.8291 1.58411 33.2577 2.94205L44.7692 39.414C45.1978 40.7719 44.5108 42.2425 43.2346 42.6985L16.9629 52.0877C15.6867 52.5438 14.3048 51.8127 13.8762 50.4548L2.36468 13.9829C1.93607 12.6249 2.62314 11.1544 3.89928 10.6983ZM4.28731 11.9277C3.64924 12.1557 3.30571 12.891 3.52001 13.57L15.0315 50.0419C15.2458 50.7208 15.9368 51.0864 16.5749 50.8584L42.8466 41.4692C43.4847 41.2411 43.8282 40.5058 43.6139 39.8269L32.1024 3.35495C31.8881 2.67598 31.1971 2.31043 30.559 2.53847L4.28731 11.9277Z" fill="#282828"/>
<path fill-rule="evenodd" clip-rule="evenodd" d="M11.3873 18.8668C11.2802 18.5273 11.452 18.1597 11.771 18.0457L27.4199 12.453C27.7389 12.3389 28.0844 12.5217 28.1915 12.8612C28.2987 13.2007 28.1269 13.5683 27.8079 13.6823L12.159 19.2751C11.84 19.3891 11.4945 19.2063 11.3873 18.8668Z" fill="#282828"/>
<path fill-rule="evenodd" clip-rule="evenodd" d="M12.6352 22.8208C12.528 22.4813 12.6998 22.1136 13.0188 21.9996L28.6677 16.4069C28.9867 16.2929 29.3322 16.4757 29.4394 16.8151C29.5465 17.1546 29.3747 17.5223 29.0557 17.6363L13.4068 23.229C13.0878 23.343 12.7423 23.1603 12.6352 22.8208Z" fill="#282828"/>
<path fill-rule="evenodd" clip-rule="evenodd" d="M13.8834 26.7748C13.7763 26.4353 13.948 26.0677 14.2671 25.9536L29.9159 20.3609C30.235 20.2469 30.5805 20.4297 30.6876 20.7692C30.7948 21.1087 30.623 21.4763 30.304 21.5903L14.6551 27.183C14.3361 27.2971 13.9906 27.1143 13.8834 26.7748Z" fill="#282828"/>
<path fill-rule="evenodd" clip-rule="evenodd" d="M15.1313 30.7287C15.0241 30.3892 15.1959 30.0215 15.5149 29.9075L31.1638 24.3148C31.4828 24.2008 31.8283 24.3836 31.9355 24.723C32.0426 25.0625 31.8708 25.4302 31.5518 25.5442L15.9029 31.1369C15.5839 31.2509 15.2384 31.0681 15.1313 30.7287Z" fill="#282828"/>
<path fill-rule="evenodd" clip-rule="evenodd" d="M16.3791 34.6825C16.2719 34.343 16.4437 33.9753 16.7627 33.8613L32.4116 28.2686C32.7306 28.1546 33.0761 28.3373 33.1833 28.6768C33.2904 29.0163 33.1187 29.384 32.7996 29.498L17.1508 35.0907C16.8317 35.2047 16.4862 35.0219 16.3791 34.6825Z" fill="#282828"/>
<path fill-rule="evenodd" clip-rule="evenodd" d="M25.1 35.9602C25.2073 36.2997 25.0358 36.6674 24.7168 36.7817L18.399 39.0445C18.08 39.1587 17.7344 38.9762 17.627 38.6368C17.5197 38.2974 17.6912 37.9296 18.0102 37.8154L24.328 35.5525C24.647 35.4383 24.9926 35.6208 25.1 35.9602Z" fill="#282828"/>
<path d="M37.4606 4.94146C37.638 4.25052 38.3081 3.84337 38.9574 4.03207L65.6922 11.8015C66.3415 11.9902 66.7242 12.7033 66.5468 13.3943L57.0212 50.509C56.8438 51.2 56.1737 51.6071 55.5244 51.4184L28.7896 43.6489C28.1403 43.4602 27.7577 42.7471 27.935 42.0562L37.4606 4.94146Z" fill="white"/>
<path fill-rule="evenodd" clip-rule="evenodd" d="M39.2786 2.781L66.0134 10.5505C67.3121 10.9279 68.0773 12.3541 67.7226 13.7359L58.197 50.8507C57.8423 52.2326 56.5021 53.0468 55.2034 52.6694L28.4686 44.9C27.17 44.5226 26.4048 43.0964 26.7594 41.7145L36.2851 4.59977C36.6397 3.21789 37.98 2.4036 39.2786 2.781ZM38.9575 4.03206C38.3082 3.84336 37.6381 4.2505 37.4608 4.94144L27.9351 42.0562C27.7578 42.7471 28.1404 43.4602 28.7897 43.6489L55.5245 51.4184C56.1738 51.6071 56.844 51.1999 57.0213 50.509L66.5469 13.3943C66.7243 12.7033 66.3416 11.9902 65.6923 11.8015L38.9575 4.03206Z" fill="#282828"/>
<path fill-rule="evenodd" clip-rule="evenodd" d="M50.5015 37.3164C50.7369 37.3873 50.9097 37.6011 50.9402 37.8594L51.6928 44.2278C51.7348 44.5831 51.4981 44.9074 51.1642 44.9521C50.8303 44.9968 50.5255 44.7449 50.4836 44.3896L49.9103 39.5391L47.0036 43.3897C46.7928 43.6689 46.4092 43.7134 46.1469 43.4891C45.8845 43.2649 45.8426 42.8567 46.0534 42.5775L49.8605 37.5342C50.0137 37.3313 50.2661 37.2455 50.5015 37.3164Z" fill="#282828"/>
<path fill-rule="evenodd" clip-rule="evenodd" d="M47.6371 40.7323C47.7257 40.3868 48.0608 40.1833 48.3855 40.2776L50.9284 41.0166C51.253 41.111 51.4443 41.4675 51.3557 41.813C51.267 42.1585 50.9319 42.362 50.6073 42.2677L48.0644 41.5287C47.7397 41.4343 47.5484 41.0778 47.6371 40.7323Z" fill="#282828"/>
<path fill-rule="evenodd" clip-rule="evenodd" d="M54.156 40.8015C54.4806 40.8958 54.6719 41.2524 54.5833 41.5978L54.1043 43.464C54.0156 43.8095 53.6806 44.013 53.3559 43.9187C53.0313 43.8243 52.84 43.4678 52.9286 43.1223L53.4076 41.2562C53.4962 40.9107 53.8313 40.7071 54.156 40.8015Z" fill="#282828"/>
<path fill-rule="evenodd" clip-rule="evenodd" d="M55.2203 42.7856C55.1316 43.131 54.7966 43.3346 54.4719 43.2403L52.7182 42.7306C52.3935 42.6363 52.2022 42.2797 52.2909 41.9342C52.3796 41.5888 52.7146 41.3852 53.0393 41.4795L54.793 41.9892C55.1177 42.0835 55.309 42.4401 55.2203 42.7856Z" fill="#282828"/>
<path d="M55.2202 25.5897C55.7515 25.267 55.9362 24.5471 55.6329 23.9818C55.3296 23.4165 54.6531 23.2199 54.1219 23.5427L47.6112 27.4983C47.0266 27.8534 46.2822 27.6371 45.9485 27.0151L43.8646 23.1314C43.5613 22.5661 42.8848 22.3695 42.3535 22.6922C41.8223 23.015 41.6375 23.7349 41.9409 24.3002L44.6283 29.3087C44.6287 29.3095 44.6284 29.3105 44.6277 29.3109C44.627 29.3114 44.6267 29.3124 44.6272 29.3131L45.724 31.3574C45.7245 31.3582 45.7254 31.3584 45.7261 31.358L45.7261 31.358C45.7268 31.3576 45.7277 31.3578 45.7282 31.3586C45.7286 31.3593 45.7295 31.3596 45.7302 31.3592L47.6514 30.1919C47.6521 30.1915 47.6523 30.1905 47.6519 30.1898C47.6515 30.189 47.6517 30.1881 47.6525 30.1876L55.2202 25.5897Z" fill="white"/>
<path fill-rule="evenodd" clip-rule="evenodd" d="M47.0068 26.3721L53.5175 22.4164C54.6333 21.7385 56.0542 22.1515 56.6913 23.3388C57.3283 24.526 56.9403 26.0381 55.8245 26.7159L48.3285 31.2702C48.3049 31.287 48.2806 31.3029 48.2556 31.3181L46.3344 32.4854C46.044 32.6618 45.7143 32.6974 45.4148 32.6123C45.1091 32.5267 44.8347 32.3156 44.6656 32.0004L43.5687 29.9561C43.5543 29.9293 43.5409 29.902 43.5284 29.8746L40.8824 24.9432C40.2454 23.7559 40.6334 22.2439 41.7492 21.566C42.865 20.8881 44.2859 21.301 44.923 22.4883L47.0068 26.3721ZM55.6329 23.9818C55.9362 24.5471 55.7514 25.267 55.2202 25.5897L47.6524 30.1876C47.6517 30.188 47.6515 30.189 47.6519 30.1898C47.652 30.19 47.6521 30.1903 47.6521 30.1906C47.652 30.1911 47.6518 30.1916 47.6513 30.1919L45.7301 31.3591C45.7294 31.3596 45.7285 31.3593 45.7281 31.3586C45.7277 31.3578 45.7268 31.3575 45.7261 31.358L45.7261 31.358C45.7253 31.3584 45.7244 31.3582 45.724 31.3574L44.6271 29.3131C44.6267 29.3123 44.627 29.3114 44.6277 29.3109C44.6284 29.3105 44.6287 29.3095 44.6282 29.3087L41.9408 24.3002C41.6375 23.7349 41.8223 23.015 42.3535 22.6922C42.8847 22.3695 43.5613 22.5661 43.8646 23.1314L45.9485 27.0151C46.2822 27.6371 47.0266 27.8534 47.6111 27.4983L54.1218 23.5426C54.653 23.2199 55.3296 23.4165 55.6329 23.9818Z" fill="#282828"/>
</svg>
