<svg width="59" height="56" viewBox="0 0 59 56" fill="none" xmlns="http://www.w3.org/2000/svg">
<path d="M31.0047 9.86891L53.4947 6.29732C55.4213 5.99136 57.1632 7.58473 57.2278 9.71208L58.454 50.0785C58.5128 52.0141 57.1493 53.6481 55.381 53.7612L31.6649 55.2784C29.7896 55.3984 28.2086 53.768 28.2086 51.7141V13.4022C28.2086 11.6286 29.3994 10.1239 31.0047 9.86891Z" fill="#282828"/>
<path d="M27.9955 9.86891L5.50557 6.29732C3.57897 5.99136 1.83703 7.58473 1.77241 9.71208L0.546266 50.0785C0.487469 52.0141 1.8509 53.6481 3.61928 53.7612L27.3354 55.2784C29.2107 55.3984 30.7917 53.768 30.7917 51.7141V13.4022C30.7917 11.6286 29.6009 10.1239 27.9955 9.86891Z" fill="#282828"/>
<path d="M30.4884 8.60608L52.5578 4.53884C53.2094 4.41876 53.8077 4.95586 53.8268 5.67796L54.9776 49.1369C54.9945 49.7763 54.5461 50.316 53.9623 50.3588L30.7421 52.0607C30.1137 52.1068 29.5808 51.5619 29.5808 50.8732V9.77964C29.5808 9.1987 29.9644 8.70264 30.4884 8.60608Z" fill="white"/>
<path fill-rule="evenodd" clip-rule="evenodd" d="M52.377 3.36527L30.3075 7.43252C29.2596 7.62564 28.4924 8.61774 28.4924 9.77963V50.8732C28.4924 52.2505 29.5582 53.3403 30.815 53.2481L54.0352 51.5462C55.2028 51.4607 56.0996 50.3813 56.0657 49.1025L54.915 5.64351C54.8767 4.19932 53.6801 3.12512 52.377 3.36527ZM52.5579 4.53883L30.4885 8.60608C29.9645 8.70264 29.5809 9.19869 29.5809 9.77963V50.8732C29.5809 51.5619 30.1138 52.1068 30.7422 52.0607L53.9624 50.3588C54.5462 50.316 54.9946 49.7763 54.9777 49.1369L53.8269 5.67795C53.8078 4.95586 53.2095 4.41876 52.5579 4.53883Z" fill="#282828"/>
<path d="M30.8854 8.51048L49.8331 1.9624C50.5222 1.72426 51.2283 2.27292 51.2492 3.06273L52.398 46.4459C52.4134 47.0293 52.0397 47.5389 51.5154 47.6491L31.419 51.8737C30.7477 52.0148 30.125 51.4524 30.125 50.705V9.64525C30.125 9.12615 30.4327 8.66693 30.8854 8.51048Z" fill="white"/>
<path fill-rule="evenodd" clip-rule="evenodd" d="M49.5051 0.827595L30.5575 7.37567C29.652 7.68858 29.0366 8.60702 29.0366 9.64523V50.705C29.0366 52.1998 30.282 53.3246 31.6247 53.0424L51.7211 48.8178C52.7695 48.5974 53.517 47.5783 53.4861 46.4115L52.3374 3.02827C52.2956 1.44864 50.8833 0.351313 49.5051 0.827595ZM49.8332 1.96237L30.8855 8.51045C30.4328 8.6669 30.1251 9.12612 30.1251 9.64523V50.705C30.1251 51.4524 30.7478 52.0148 31.4191 51.8737L51.5155 47.6491C52.0397 47.5389 52.4135 47.0293 52.3981 46.4459L51.2493 3.06271C51.2284 2.27289 50.5223 1.72423 49.8332 1.96237Z" fill="#282828"/>
<path d="M35.0955 6.20359L38.4372 5.01096V14.7917L36.7663 13.6709L35.0955 15.4978V6.20359Z" fill="#282828"/>
<path fill-rule="evenodd" clip-rule="evenodd" d="M34.0068 6.20359C34.0068 5.6886 34.3098 5.23203 34.7576 5.07222L38.0993 3.87959C38.4308 3.76129 38.7941 3.82378 39.0763 4.04766C39.3586 4.27154 39.5256 4.62971 39.5256 5.01096V14.7917C39.5256 15.2226 39.3126 15.6198 38.9687 15.8302C38.6249 16.0407 38.2038 16.0315 37.8679 15.8061L36.9288 15.1762L35.8651 16.3393C35.5537 16.6797 35.0855 16.7815 34.6788 16.5973C34.272 16.4131 34.0068 15.9791 34.0068 15.4978V6.20359ZM38.4371 14.7917L36.7662 13.6709L35.0954 15.4978V6.20359L38.4371 5.01096V14.7917Z" fill="#282828"/>
<path d="M28.0283 8.6052L6.11273 4.54051C5.46077 4.41959 4.86162 4.95696 4.84261 5.67965L3.69919 49.1376C3.68237 49.7767 4.13049 50.3162 4.71399 50.3592L27.7729 52.0601C28.4015 52.1065 28.9347 51.5615 28.9347 50.8727V9.77855C28.9347 9.19808 28.5517 8.70228 28.0283 8.6052Z" fill="white"/>
<path fill-rule="evenodd" clip-rule="evenodd" d="M6.29469 3.36716L28.2102 7.43185C29.2571 7.62601 30.0232 8.6176 30.0232 9.77855V50.8727C30.0232 52.2503 28.9568 53.3402 27.6996 53.2475L4.64062 51.5466C3.47362 51.4605 2.57739 50.3816 2.61102 49.1033L3.75444 5.64542C3.79247 4.20004 4.99077 3.12532 6.29469 3.36716ZM6.11264 4.54051L28.0282 8.6052C28.5516 8.70228 28.9346 9.19808 28.9346 9.77855V50.8727C28.9346 51.5615 28.4014 52.1065 27.7729 52.0601L4.71389 50.3592C4.13039 50.3162 3.68228 49.7767 3.69909 49.1376L4.84251 5.67964C4.86153 4.95695 5.46068 4.41959 6.11264 4.54051Z" fill="#282828"/>
<path fill-rule="evenodd" clip-rule="evenodd" d="M22.877 20.4112C23.5952 20.063 24.416 20.0966 25.0428 20.4202C25.3146 20.5605 25.4309 20.9151 25.3026 21.2123C25.1743 21.5095 24.8499 21.6367 24.5781 21.4964C24.2357 21.3196 23.7455 21.292 23.3183 21.4991C22.9176 21.6934 22.5419 22.1091 22.4182 22.9023C22.2953 23.6901 22.4583 24.4447 22.8181 24.9454C23.1591 25.4201 23.7141 25.7224 24.5332 25.5708C24.8295 25.516 25.1104 25.7342 25.1606 26.0582C25.2108 26.3823 25.0112 26.6894 24.7148 26.7443C23.5216 26.9651 22.5612 26.5144 21.9621 25.6807C21.3817 24.8729 21.1796 23.7637 21.3452 22.7022C21.5282 21.5288 22.1323 20.7723 22.877 20.4112Z" fill="#282828"/>
<path fill-rule="evenodd" clip-rule="evenodd" d="M50.0966 17.4356C50.0389 17.113 49.7531 16.9026 49.4581 16.9656L32.103 20.6724C31.808 20.7354 31.6156 21.0479 31.6732 21.3705C31.7309 21.693 32.0167 21.9034 32.3117 21.8404L49.6668 18.1337C49.9618 18.0707 50.1542 17.7581 50.0966 17.4356Z" fill="#282828"/>
<path fill-rule="evenodd" clip-rule="evenodd" d="M50.0966 20.1715C50.0389 19.849 49.7531 19.6386 49.4581 19.7016L32.103 23.4083C31.808 23.4713 31.6156 23.7839 31.6732 24.1064C31.7309 24.429 32.0167 24.6394 32.3117 24.5763L49.6668 20.8696C49.9618 20.8066 50.1542 20.4941 50.0966 20.1715Z" fill="#282828"/>
<path fill-rule="evenodd" clip-rule="evenodd" d="M50.0966 31.1594C50.0389 30.8368 49.7531 30.6264 49.4581 30.6894L32.103 34.3961C31.808 34.4591 31.6156 34.7717 31.6732 35.0942C31.7309 35.4168 32.0167 35.6272 32.3117 35.5642L49.6668 31.8575C49.9618 31.7945 50.1542 31.4819 50.0966 31.1594Z" fill="#282828"/>
<path fill-rule="evenodd" clip-rule="evenodd" d="M50.0966 22.9958C50.0389 22.6732 49.7531 22.4628 49.4581 22.5258L32.103 26.2325C31.808 26.2956 31.6156 26.6081 31.6732 26.9307C31.7309 27.2532 32.0167 27.4636 32.3117 27.4006L49.6668 23.6939C49.9618 23.6309 50.1542 23.3183 50.0966 22.9958Z" fill="#282828"/>
<path fill-rule="evenodd" clip-rule="evenodd" d="M50.0966 33.9836C50.0389 33.6611 49.7531 33.4507 49.4581 33.5137L32.103 37.2204C31.808 37.2834 31.6156 37.5959 31.6732 37.9185C31.7309 38.241 32.0167 38.4514 32.3117 38.3884L49.6668 34.6817C49.9618 34.6187 50.1542 34.3061 50.0966 33.9836Z" fill="#282828"/>
<path fill-rule="evenodd" clip-rule="evenodd" d="M50.0966 25.9304C50.0389 25.6078 49.7531 25.3974 49.4581 25.4604L32.103 29.1671C31.808 29.2301 31.6156 29.5427 31.6732 29.8652C31.7309 30.1878 32.0167 30.3982 32.3117 30.3352L49.6668 26.6285C49.9618 26.5654 50.1542 26.2529 50.0966 25.9304Z" fill="#282828"/>
<path fill-rule="evenodd" clip-rule="evenodd" d="M50.0966 36.9183C50.0389 36.5957 49.7531 36.3853 49.4581 36.4483L32.103 40.155C31.808 40.218 31.6156 40.5306 31.6732 40.8531C31.7309 41.1757 32.0167 41.3861 32.3117 41.3231L49.6668 37.6164C49.9618 37.5534 50.1542 37.2408 50.0966 36.9183Z" fill="#282828"/>
<path fill-rule="evenodd" clip-rule="evenodd" d="M42.2283 41.6746C42.1772 41.3508 41.8957 41.1335 41.5995 41.1893L32.1147 42.9766C31.8185 43.0325 31.6198 43.3403 31.6708 43.6641C31.7219 43.988 32.0034 44.2053 32.2996 44.1495L41.7843 42.3621C42.0806 42.3063 42.2793 41.9985 42.2283 41.6746Z" fill="#282828"/>
<path fill-rule="evenodd" clip-rule="evenodd" d="M7.28454 30.215C7.312 29.8878 7.57692 29.6468 7.87625 29.6768L25.4734 31.4419C25.7727 31.4719 25.9931 31.7616 25.9657 32.0888C25.9382 32.4161 25.6733 32.6571 25.374 32.6271L7.7768 30.862C7.47747 30.8319 7.25708 30.5423 7.28454 30.215Z" fill="#282828"/>
<path fill-rule="evenodd" clip-rule="evenodd" d="M7.28454 38.1558C7.312 37.8285 7.57692 37.5876 7.87625 37.6176L25.4734 39.3827C25.7727 39.4127 25.9931 39.7024 25.9657 40.0296C25.9382 40.3569 25.6733 40.5979 25.374 40.5678L7.7768 38.8027C7.47747 38.7727 7.25708 38.4831 7.28454 38.1558Z" fill="#282828"/>
<path fill-rule="evenodd" clip-rule="evenodd" d="M7.28349 33.0488C7.30365 32.7209 7.56312 32.4729 7.86303 32.495L17.4688 33.201C17.7687 33.223 17.9955 33.5067 17.9754 33.8346C17.9552 34.1625 17.6957 34.4105 17.3958 34.3884L7.79002 33.6824C7.49011 33.6604 7.26333 33.3767 7.28349 33.0488Z" fill="#282828"/>
<path fill-rule="evenodd" clip-rule="evenodd" d="M7.28359 40.988C7.30458 40.6602 7.56468 40.413 7.86453 40.4359L21.6502 41.491C21.95 41.514 22.1761 41.7984 22.1551 42.1262C22.1341 42.454 21.874 42.7012 21.5741 42.6783L7.78852 41.6232C7.48866 41.6002 7.2626 41.3158 7.28359 40.988Z" fill="#282828"/>
<path fill-rule="evenodd" clip-rule="evenodd" d="M7.28349 43.5231C7.30365 43.1952 7.56312 42.9473 7.86303 42.9693L17.4688 43.6754C17.7687 43.6974 17.9955 43.9811 17.9754 44.309C17.9552 44.6369 17.6957 44.8848 17.3958 44.8628L7.79002 44.1568C7.49011 44.1347 7.26333 43.851 7.28349 43.5231Z" fill="#282828"/>
<path fill-rule="evenodd" clip-rule="evenodd" d="M10.8617 12.8956C11.0939 12.9078 11.2934 13.0798 11.3583 13.3238L14.5872 25.4589C14.6711 25.7744 14.5052 26.1046 14.2166 26.1964C13.928 26.2882 13.6259 26.1069 13.542 25.7913L10.7558 15.3199L7.1036 25.3596C6.99251 25.665 6.67604 25.8141 6.39673 25.6926C6.11742 25.5711 5.98106 25.2251 6.09214 24.9198L10.33 13.2701C10.4159 13.034 10.6295 12.8835 10.8617 12.8956Z" fill="#282828"/>
<path fill-rule="evenodd" clip-rule="evenodd" d="M13.2167 21.014C13.2167 21.3427 12.973 21.6091 12.6724 21.6091L8.1318 21.6091C7.83121 21.6091 7.58754 21.3426 7.58754 21.014C7.58754 20.6854 7.83121 20.4189 8.1318 20.4189L12.6724 20.419C12.973 20.419 13.2167 20.6854 13.2167 21.014Z" fill="#282828"/>
<path fill-rule="evenodd" clip-rule="evenodd" d="M16.9496 17.7705V20.2016C17.0926 20.2078 17.2458 20.2251 17.4003 20.251C17.6125 20.2322 17.8446 20.1913 18.0636 20.1161C18.3215 20.0277 18.5205 19.9053 18.6499 19.7584C18.7672 19.6251 18.8478 19.4504 18.8478 19.1825C18.8478 18.6619 18.5667 18.3129 18.0528 18.0657C17.7101 17.9009 17.3103 17.8101 16.9496 17.7705ZM19.1091 20.8815C19.2244 20.796 19.3341 20.6974 19.4341 20.5837C19.7444 20.2313 19.9363 19.7618 19.9363 19.1825C19.9363 18.0085 19.2218 17.3278 18.4912 16.9764C17.7724 16.6306 16.9393 16.5415 16.3906 16.5577C16.0959 16.5665 15.8611 16.8302 15.8611 17.1526V25.7134C15.8611 25.9767 16.0194 26.2087 16.2502 26.2837C16.8398 26.4754 17.8033 26.5454 18.6746 26.2422C19.1183 26.0878 19.5611 25.8285 19.9133 25.413C20.2706 24.9916 20.51 24.4382 20.5788 23.748C20.7226 22.3076 19.9406 21.3966 19.1091 20.8815ZM16.9496 21.4507C17.0718 21.4557 17.2051 21.4552 17.3453 21.4475C17.6726 21.5125 18.0522 21.633 18.4022 21.8191C19.1167 22.1992 19.5819 22.7652 19.4967 23.619C19.4518 24.0694 19.3046 24.3804 19.115 24.604C18.9204 24.8336 18.656 24.9998 18.3445 25.1082C17.8764 25.271 17.3548 25.2848 16.9496 25.2286V21.4507Z" fill="#282828"/>
</svg>
