<svg width="77" height="79" viewBox="0 0 77 79" fill="none" xmlns="http://www.w3.org/2000/svg">
<path d="M8.38782 43.7019C8.38782 41.6972 8.92273 40.6537 9.93986 39.8573L41.2036 53.0939C39.6243 58.037 40.9401 62.4967 42.5151 63.749L10.5827 48.7824C9.67702 48.0552 8.38782 46.2559 8.38782 43.7019Z" fill="white"/>
<path fill-rule="evenodd" clip-rule="evenodd" d="M9.20996 38.8759C9.5503 38.6094 10.003 38.5486 10.3988 38.7162L41.6625 51.9527C42.2446 52.1991 42.543 52.8643 42.3468 53.4782C41.6207 55.751 41.5665 57.8949 41.8609 59.5886C42.1669 61.349 42.807 62.4193 43.2521 62.7732C43.735 63.1572 43.8607 63.8514 43.5446 64.3877C43.2285 64.924 42.5708 65.1321 42.0152 64.8717L10.0827 49.905C9.99673 49.8647 9.91565 49.8141 9.84118 49.7543C8.68137 48.8231 7.18469 46.6814 7.18469 43.7018C7.18469 42.5935 7.33156 41.6482 7.68038 40.8311C8.03716 39.9955 8.56948 39.3774 9.20996 38.8759ZM10.5827 48.7823C9.67702 48.0551 8.38782 46.2558 8.38782 43.7018C8.38782 41.6971 8.92273 40.6536 9.93986 39.8572L41.2036 53.0938C40.106 56.5293 40.4068 59.7313 41.2212 61.7854C41.5785 62.6867 42.0348 63.367 42.5151 63.7489L10.5827 48.7823Z" fill="black"/>
<path d="M68.6122 27.2497L38.3713 15.2512L9.78427 39.9753L42.6239 54.1553L68.6122 27.2497Z" fill="#E6E6E6"/>
<path fill-rule="evenodd" clip-rule="evenodd" d="M37.5959 14.3075C37.9318 14.0169 38.3954 13.9374 38.8053 14.1L69.0461 26.0984C69.4247 26.2486 69.7039 26.5846 69.7887 26.9918C69.8735 27.3991 69.7525 27.8228 69.4667 28.1186L43.4785 55.0242C43.1328 55.3821 42.6099 55.4885 42.1572 55.2931L9.31756 41.1131C8.93158 40.9464 8.65783 40.5858 8.59483 40.161C8.53183 39.7363 8.68863 39.3085 9.00882 39.0316L37.5959 14.3075ZM38.3713 15.2512L68.6122 27.2497L42.6239 54.1553L9.78426 39.9753L38.3713 15.2512Z" fill="black"/>
<path d="M51.3213 30.0671L38.0987 24.7395L35.5605 26.9739L48.6714 32.6073L51.3213 30.0671Z" fill="white" stroke="black" stroke-width="0.8" stroke-linecap="round" stroke-linejoin="round"/>
<path d="M68.5857 36.4518C65.6949 34.0351 66.2302 30.163 68.4519 27.307L41.4175 53.5055C39.758 57.5973 41.1047 61.5535 42.5419 63.735L68.5857 36.4518Z" fill="white"/>
<path fill-rule="evenodd" clip-rule="evenodd" d="M69.2664 26.3986C69.7314 26.8374 69.7863 27.5704 69.3922 28.077C68.4069 29.3437 67.8445 30.7767 67.8042 32.0832C67.7651 33.348 68.2075 34.5434 69.3457 35.4948C69.6078 35.714 69.768 36.0362 69.7869 36.3826C69.8059 36.729 69.6819 37.0676 69.4453 37.3155L43.4014 64.5987C43.1486 64.8635 42.7932 64.9978 42.4334 64.9644C42.0736 64.9309 41.7474 64.7334 41.5451 64.4263C39.9651 62.028 38.4419 57.6296 40.3067 53.0313C40.3715 52.8713 40.4685 52.7271 40.5913 52.6082L67.6257 26.4096C68.085 25.9646 68.8015 25.9598 69.2664 26.3986ZM68.4519 27.307L41.4175 53.5055C40.008 56.9811 40.7672 60.3588 41.9087 62.6342C42.111 63.0377 42.3254 63.4065 42.5419 63.735L68.5857 36.4518C68.2889 36.2037 68.0282 35.9402 67.8018 35.6641C66.6004 34.1991 66.3625 32.3776 66.807 30.599C67.0948 29.4476 67.6685 28.3141 68.4519 27.307Z" fill="black"/>
<path fill-rule="evenodd" clip-rule="evenodd" d="M66.9034 36.1325C67.1345 36.3774 67.1283 36.7681 66.8896 37.0052L48.4742 55.2947C48.2355 55.5318 47.8547 55.5255 47.6236 55.2806C47.3925 55.0356 47.3987 54.6449 47.6374 54.4078L66.0528 36.1183C66.2915 35.8812 66.6723 35.8876 66.9034 36.1325Z" fill="black"/>
<path fill-rule="evenodd" clip-rule="evenodd" d="M65.8414 34.6041C66.0674 34.854 66.0532 35.2445 65.8097 35.4763L53.9253 46.7906C53.6818 47.0224 53.3012 47.0078 53.0752 46.758C52.8492 46.5081 52.8634 46.1176 53.107 45.8858L64.9913 34.5715C65.2348 34.3397 65.6155 34.3543 65.8414 34.6041Z" fill="black"/>
<path fill-rule="evenodd" clip-rule="evenodd" d="M14.8959 47.1334C15.0261 46.8198 15.3793 46.6737 15.685 46.8072L27.1458 51.812C27.4515 51.9454 27.5939 52.3079 27.4638 52.6215C27.3337 52.9352 26.9804 53.0812 26.6747 52.9477L15.2139 47.943C14.9082 47.8095 14.7658 47.447 14.8959 47.1334Z" fill="black"/>
</svg>
