<svg width="23" height="23" viewBox="0 0 23 23" fill="none" xmlns="http://www.w3.org/2000/svg">
<path d="M4.52003 18.6036C4.03166 18.6036 3.61359 18.4297 3.26581 18.0819C2.91803 17.7341 2.74414 17.316 2.74414 16.8277V6.17234C2.74414 5.68397 2.91803 5.2659 3.26581 4.91812C3.61359 4.57034 4.03166 4.39645 4.52003 4.39645H9.8477L11.6236 6.17234H18.7271C19.2155 6.17234 19.6336 6.34623 19.9814 6.69401C20.3291 7.04179 20.503 7.45986 20.503 7.94823V16.8277C20.503 17.316 20.3291 17.7341 19.9814 18.0819C19.6336 18.4297 19.2155 18.6036 18.7271 18.6036H4.52003ZM4.52003 16.8277H18.7271V7.94823H10.891L9.11514 6.17234H4.52003V16.8277Z" fill="white"/>
</svg>
