<svg width="16" height="16" viewBox="0 0 16 16" fill="none" xmlns="http://www.w3.org/2000/svg">
<g clip-path="url(#clip0_335_3437)">
<path d="M11.3334 8.66756L8.66669 14.6676C8.13625 14.6676 7.62755 14.4568 7.25247 14.0818C6.8774 13.7067 6.66669 13.198 6.66669 12.6676V10.0009H2.89335C2.70008 10.0031 2.50864 9.96322 2.33231 9.88408C2.15597 9.80494 1.99894 9.6884 1.87211 9.54255C1.74529 9.3967 1.65168 9.22501 1.59779 9.03939C1.5439 8.85377 1.53102 8.65865 1.56002 8.46756L2.48002 2.46756C2.52824 2.14962 2.68973 1.85982 2.93475 1.65155C3.17977 1.44329 3.4918 1.33059 3.81335 1.33423H11.3334M11.3334 8.66756V1.33423M11.3334 8.66756H13.1134C13.4907 8.67423 13.8573 8.54213 14.1436 8.29635C14.43 8.05056 14.6161 7.70819 14.6667 7.33422V2.66756C14.6161 2.2936 14.43 1.95123 14.1436 1.70544C13.8573 1.45965 13.4907 1.32755 13.1134 1.33423H11.3334" stroke="#8F8F8F" stroke-width="1.6" stroke-linecap="round" stroke-linejoin="round"/>
</g>
<defs>
<clipPath id="clip0_335_3437">
<rect width="16" height="16" fill="white"/>
</clipPath>
</defs>
</svg>
