<svg width="16" height="16" viewBox="0 0 16 16" fill="none" xmlns="http://www.w3.org/2000/svg">
<g clip-path="url(#clip0_335_3436)">
<path d="M4.66634 7.33398L7.33301 1.33398C7.86344 1.33398 8.37215 1.5447 8.74722 1.91977C9.12229 2.29484 9.33301 2.80355 9.33301 3.33398V6.00065H13.1063C13.2996 5.99846 13.4911 6.03832 13.6674 6.11746C13.8437 6.1966 14.0008 6.31314 14.1276 6.45899C14.2544 6.60485 14.348 6.77653 14.4019 6.96215C14.4558 7.14777 14.4687 7.34289 14.4397 7.53398L13.5197 13.534C13.4715 13.8519 13.31 14.1417 13.0649 14.35C12.8199 14.5583 12.5079 14.671 12.1863 14.6673H4.66634M4.66634 7.33398V14.6673M4.66634 7.33398H2.66634C2.31272 7.33398 1.97358 7.47446 1.72353 7.72451C1.47348 7.97456 1.33301 8.31369 1.33301 8.66732V13.334C1.33301 13.6876 1.47348 14.0267 1.72353 14.2768C1.97358 14.5268 2.31272 14.6673 2.66634 14.6673H4.66634" stroke="#8F8F8F" stroke-width="1.6" stroke-linecap="round" stroke-linejoin="round"/>
</g>
<defs>
<clipPath id="clip0_335_3436">
<rect width="16" height="16" fill="white"/>
</clipPath>
</defs>
</svg>
