<svg width="15" height="15" viewBox="0 0 15 15" fill="none" xmlns="http://www.w3.org/2000/svg">
<path d="M1.25 13.75C1.25 10.9886 3.48857 8.75 6.25 8.75C9.01144 8.75 11.25 10.9886 11.25 13.75H10C10 11.6789 8.32106 10 6.25 10C4.17893 10 2.5 11.6789 2.5 13.75H1.25ZM6.25 8.125C4.17812 8.125 2.5 6.44688 2.5 4.375C2.5 2.30312 4.17812 0.625 6.25 0.625C8.32188 0.625 10 2.30312 10 4.375C10 6.44688 8.32188 8.125 6.25 8.125ZM6.25 6.875C7.63125 6.875 8.75 5.75625 8.75 4.375C8.75 2.99375 7.63125 1.875 6.25 1.875C4.86875 1.875 3.75 2.99375 3.75 4.375C3.75 5.75625 4.86875 6.875 6.25 6.875ZM11.4273 9.18925C13.1653 9.97256 14.375 11.72 14.375 13.75H13.125C13.125 12.2275 12.2177 10.9169 10.9142 10.3294L11.4273 9.18925ZM10.9976 2.13326C12.2465 2.64814 13.125 3.87726 13.125 5.3125C13.125 7.10637 11.7526 8.57825 10 8.736V7.47787C11.0604 7.32637 11.875 6.415 11.875 5.3125C11.875 4.44959 11.376 3.70377 10.6506 3.34772L10.9976 2.13326Z" fill="#515151"/>
</svg>
