<svg width="20" height="20" viewBox="0 0 20 20" fill="none" xmlns="http://www.w3.org/2000/svg">
<path d="M10 17.4161L14.1248 13.2913C16.4028 11.0133 16.4028 7.31977 14.1248 5.04171C11.8468 2.76365 8.15327 2.76365 5.87521 5.04171C3.59715 7.31977 3.59715 11.0133 5.87521 13.2913L10 17.4161ZM10 19.7731L4.6967 14.4698C1.76777 11.5408 1.76777 6.79214 4.6967 3.8632C7.62563 0.93427 12.3743 0.93427 15.3033 3.8632C18.2323 6.79214 18.2323 11.5408 15.3033 14.4698L10 19.7731ZM9.16667 8.33317V5.83317H10.8333V8.33317H13.3333V9.99984H10.8333V12.4998H9.16667V9.99984H6.66667V8.33317H9.16667Z" fill="#031E4D"/>
</svg>
