<svg width="21" height="21" viewBox="0 0 21 21" fill="none" xmlns="http://www.w3.org/2000/svg">
<path d="M16.625 6.125H21V7.875H16.625V6.125ZM14.875 10.5H21V12.25H14.875V10.5ZM17.5 14.875H21V16.625H17.5V14.875ZM1.75 19.25C1.75 15.384 4.884 12.25 8.75 12.25C12.616 12.25 15.75 15.384 15.75 19.25H14C14 16.3505 11.6495 14 8.75 14C5.8505 14 3.5 16.3505 3.5 19.25H1.75ZM8.75 11.375C5.84937 11.375 3.5 9.02563 3.5 6.125C3.5 3.22438 5.84937 0.875 8.75 0.875C11.6506 0.875 14 3.22438 14 6.125C14 9.02563 11.6506 11.375 8.75 11.375ZM8.75 9.625C10.6838 9.625 12.25 8.05875 12.25 6.125C12.25 4.19125 10.6838 2.625 8.75 2.625C6.81625 2.625 5.25 4.19125 5.25 6.125C5.25 8.05875 6.81625 9.625 8.75 9.625Z" fill="#636262"/>
</svg>
