<svg width="64" height="60" viewBox="0 0 64 60" fill="none" xmlns="http://www.w3.org/2000/svg">
<path d="M29.709 2.49963C29.709 1.80928 30.2686 1.24963 30.959 1.24963H32.0013C32.6916 1.24963 33.2513 1.80928 33.2513 2.49963V12.9243C33.2513 13.6146 32.6916 14.1743 32.0013 14.1743H30.959C30.2686 14.1743 29.709 13.6146 29.709 12.9243V2.49963Z" fill="white"/>
<path fill-rule="evenodd" clip-rule="evenodd" d="M30.959 -0.000366211H32.0013C33.382 -0.000366211 34.5013 1.11892 34.5013 2.49963V12.9243C34.5013 14.305 33.382 15.4243 32.0013 15.4243H30.959C29.5783 15.4243 28.459 14.305 28.459 12.9243V2.49963C28.459 1.11892 29.5783 -0.000366211 30.959 -0.000366211ZM30.959 1.24963C30.2686 1.24963 29.709 1.80928 29.709 2.49963V12.9243C29.709 13.6146 30.2686 14.1743 30.959 14.1743H32.0013C32.6916 14.1743 33.2513 13.6146 33.2513 12.9243V2.49963C33.2513 1.80928 32.6916 1.24963 32.0013 1.24963H30.959Z" fill="#282828"/>
<path d="M39.6991 31.5829L45.7055 56.6029C45.9917 57.8348 45.0564 59.0122 43.7917 59.0122H43.5224C42.6877 59.0122 41.9442 58.4849 41.6682 57.6972L32.8677 32.6772C32.4201 31.3996 33.3682 30.0627 34.7219 30.0627H37.7853C38.6991 30.0627 39.4923 30.6928 39.6991 31.5829Z" fill="#282828"/>
<path d="M21.7599 31.5829L15.7535 56.6029C15.4673 57.8348 16.4026 59.0122 17.6673 59.0122H17.9366C18.7713 59.0122 19.5148 58.4849 19.7908 57.6972L28.5913 32.6772C29.0389 31.3996 28.0907 30.0627 26.737 30.0627H23.6737C22.7599 30.0627 21.9667 30.6928 21.7599 31.5829Z" fill="#282828"/>
<path d="M28.1559 30.8896L28.9905 55.6082C29.0361 56.6235 29.8725 57.4232 30.8888 57.4232C31.8887 57.4232 32.7176 56.6484 32.7848 55.6507L34.32 30.945C34.4165 29.5135 33.2813 28.2993 31.8466 28.2993H30.6324C29.2196 28.2993 28.0925 29.4782 28.1559 30.8896Z" fill="#282828"/>
<path d="M3.06982 7.84834C3.06982 7.15799 3.62947 6.59834 4.31982 6.59834H57.3958C58.0861 6.59834 58.6458 7.15799 58.6458 7.84834V39.8141C58.6458 40.5044 58.0861 41.0641 57.3958 41.0641H4.31982C3.62947 41.0641 3.06982 40.5044 3.06982 39.8141V7.84834Z" fill="white"/>
<path fill-rule="evenodd" clip-rule="evenodd" d="M4.31982 5.34834H57.3958C58.7765 5.34834 59.8958 6.46763 59.8958 7.84834V39.8141C59.8958 41.1948 58.7765 42.3141 57.3958 42.3141H4.31982C2.93911 42.3141 1.81982 41.1948 1.81982 39.8141V7.84834C1.81982 6.46763 2.93911 5.34834 4.31982 5.34834ZM4.31982 6.59834C3.62947 6.59834 3.06982 7.15799 3.06982 7.84834V39.8141C3.06982 40.5044 3.62947 41.0641 4.31982 41.0641H57.3958C58.0861 41.0641 58.6458 40.5044 58.6458 39.8141V7.84834C58.6458 7.15799 58.0861 6.59834 57.3958 6.59834H4.31982Z" fill="#282828"/>
<path d="M9.60352 39.2503C9.60352 38.5599 10.1632 38.0003 10.8535 38.0003H16.1083C16.7987 38.0003 17.3583 38.5599 17.3583 39.2503V39.8139C17.3583 40.5042 16.7987 41.0639 16.1083 41.0639H10.8535C10.1632 41.0639 9.60352 40.5042 9.60352 39.8139V39.2503Z" fill="#282828"/>
<path d="M1.25049 5.40161C1.25049 4.74067 1.78628 4.20488 2.44721 4.20488H60.5842C61.2451 4.20488 61.7809 4.74067 61.7809 5.40161C61.7809 6.06254 61.2451 6.59833 60.5842 6.59833H2.44722C1.78628 6.59833 1.25049 6.06254 1.25049 5.40161Z" fill="white"/>
<path fill-rule="evenodd" clip-rule="evenodd" d="M2.44721 2.95488H60.5842C61.9354 2.95488 63.0309 4.05031 63.0309 5.40161C63.0309 6.75289 61.9354 7.84833 60.5842 7.84833H2.44722C1.09593 7.84833 0.000488281 6.7529 0.000488281 5.40161C0.000488281 4.05032 1.09592 2.95488 2.44721 2.95488ZM2.44721 4.20488C1.78628 4.20488 1.25049 4.74067 1.25049 5.40161C1.25049 6.06254 1.78628 6.59833 2.44722 6.59833H60.5842C61.2451 6.59833 61.7809 6.06254 61.7809 5.40161C61.7809 4.74067 61.2451 4.20488 60.5842 4.20488H2.44721Z" fill="#282828"/>
<path d="M1.25049 42.2608C1.25049 41.5998 1.78628 41.0641 2.44721 41.0641H60.5842C61.2451 41.0641 61.7809 41.5998 61.7809 42.2608C61.7809 42.9217 61.2451 43.4575 60.5842 43.4575H2.44722C1.78628 43.4575 1.25049 42.9217 1.25049 42.2608Z" fill="white"/>
<path fill-rule="evenodd" clip-rule="evenodd" d="M2.44721 39.8141H60.5842C61.9354 39.8141 63.0309 40.9095 63.0309 42.2608C63.0309 43.6121 61.9354 44.7075 60.5842 44.7075H2.44722C1.09593 44.7075 0.000488281 43.6121 0.000488281 42.2608C0.000488281 40.9095 1.09592 39.8141 2.44721 39.8141ZM2.44721 41.0641C1.78628 41.0641 1.25049 41.5998 1.25049 42.2608C1.25049 42.9217 1.78628 43.4575 2.44722 43.4575H60.5842C61.2451 43.4575 61.7809 42.9217 61.7809 42.2608C61.7809 41.5998 61.2451 41.0641 60.5842 41.0641H2.44721Z" fill="#282828"/>
<path fill-rule="evenodd" clip-rule="evenodd" d="M12.7622 19.1376C12.7622 18.7924 13.042 18.5126 13.3872 18.5126H18.2343C18.5795 18.5126 18.8593 18.7924 18.8593 19.1376C18.8593 19.4828 18.5795 19.7626 18.2343 19.7626H14.0122V26.3194H18.2343C18.5795 26.3194 18.8593 26.5992 18.8593 26.9444C18.8593 27.2896 18.5795 27.5694 18.2343 27.5694H13.3872C13.042 27.5694 12.7622 27.2896 12.7622 26.9444V19.1376Z" fill="#282828"/>
<path fill-rule="evenodd" clip-rule="evenodd" d="M20.8442 22.6491C20.8442 22.3039 21.1241 22.0241 21.4692 22.0241H25.019C25.3642 22.0241 25.644 22.3039 25.644 22.6491C25.644 22.9942 25.3642 23.2741 25.019 23.2741H21.4692C21.1241 23.2741 20.8442 22.9942 20.8442 22.6491Z" fill="#282828"/>
<path fill-rule="evenodd" clip-rule="evenodd" d="M20.8442 24.8499C20.8442 24.5047 21.1241 24.2249 21.4692 24.2249H25.019C25.3642 24.2249 25.644 24.5047 25.644 24.8499C25.644 25.1951 25.3642 25.4749 25.019 25.4749H21.4692C21.1241 25.4749 20.8442 25.1951 20.8442 24.8499Z" fill="#282828"/>
<path fill-rule="evenodd" clip-rule="evenodd" d="M13.5435 22.7856C13.5435 22.4405 13.8233 22.1606 14.1685 22.1606H17.2399C17.585 22.1606 17.8649 22.4405 17.8649 22.7856C17.8649 23.1308 17.585 23.4106 17.2399 23.4106H14.1685C13.8233 23.4106 13.5435 23.1308 13.5435 22.7856Z" fill="#282828"/>
<path fill-rule="evenodd" clip-rule="evenodd" d="M40.0781 21.6085C40.603 20.9023 41.4064 20.5241 42.4301 20.5241C43.2598 20.524 43.8559 20.8816 44.2505 21.3187C44.6297 21.7388 44.8179 22.223 44.8976 22.5255C44.9856 22.8592 44.7864 23.2012 44.4526 23.2892C44.1188 23.3771 43.7769 23.1779 43.6889 22.8441C43.6425 22.6682 43.5287 22.3846 43.3226 22.1564C43.132 21.9452 42.8596 21.7741 42.4302 21.7741C41.7418 21.7741 41.3368 22.0105 41.0813 22.3542C40.8029 22.7288 40.6383 23.3183 40.6382 24.1199C40.6381 24.8936 40.8461 25.455 41.1482 25.8119C41.441 26.1579 41.8653 26.3648 42.4302 26.3648C43.0351 26.3648 43.446 25.9706 43.7264 25.367C43.8719 25.0539 44.2435 24.918 44.5566 25.0635C44.8696 25.2089 45.0055 25.5806 44.8601 25.8936C44.4855 26.6999 43.7386 27.6148 42.4302 27.6148C41.5271 27.6148 40.7427 27.2678 40.194 26.6194C39.6545 25.9818 39.388 25.1083 39.3882 24.1198C39.3883 23.1797 39.5761 22.2839 40.0781 21.6085Z" fill="#282828"/>
<path fill-rule="evenodd" clip-rule="evenodd" d="M48.0288 17.3395C48.7207 17.3886 49.4219 17.796 49.7153 18.5169C49.929 19.0421 49.9101 19.5137 49.743 19.9261C49.5948 20.2921 49.3396 20.5781 49.1703 20.7677C49.1666 20.7719 49.1629 20.776 49.1593 20.7801C49.147 20.7939 49.134 20.8071 49.1205 20.8198L48.1744 21.7074H49.6447C49.9898 21.7074 50.2697 21.9872 50.2697 22.3324C50.2697 22.6776 49.9898 22.9574 49.6447 22.9574H46.5947C46.3383 22.9574 46.1079 22.8008 46.0136 22.5623C45.9192 22.3239 45.9801 22.052 46.1671 21.8766L48.2448 19.9274C48.4218 19.7282 48.5285 19.595 48.5844 19.4569C48.6268 19.3524 48.6511 19.2182 48.5574 18.9881C48.4722 18.7787 48.2379 18.6075 47.9403 18.5864C47.6672 18.567 47.3906 18.6797 47.2206 18.9951C47.0567 19.2989 46.6776 19.4124 46.3738 19.2486C46.07 19.0847 45.9565 18.7056 46.1203 18.4018C46.5451 17.614 47.3122 17.2886 48.0288 17.3395Z" fill="#282828"/>
<path fill-rule="evenodd" clip-rule="evenodd" d="M28.4937 20.7506C28.8388 20.7506 29.1187 21.0304 29.1187 21.3756V26.9897C29.1187 27.3349 28.8388 27.6147 28.4937 27.6147C28.1485 27.6147 27.8687 27.3349 27.8687 26.9897V21.3756C27.8687 21.0304 28.1485 20.7506 28.4937 20.7506Z" fill="#282828"/>
<path fill-rule="evenodd" clip-rule="evenodd" d="M27.8687 23.7928C27.8687 22.245 29.3898 20.8865 31.1659 21.1878C31.963 21.323 32.4683 21.8269 32.7611 22.343C33.0462 22.8454 33.1551 23.3954 33.1711 23.7659C33.1715 23.7749 33.1717 23.7839 33.1717 23.7929V27.0151C33.1717 27.3603 32.8919 27.6401 32.5467 27.6401C32.2015 27.6401 31.9217 27.3603 31.9217 27.0151V23.8077C31.9105 23.594 31.8401 23.2527 31.674 22.9599C31.5124 22.6752 31.2876 22.4763 30.9568 22.4202C29.9132 22.2432 29.1187 23.0496 29.1187 23.7929C29.1186 24.1381 28.8388 24.4179 28.4936 24.4179C28.1484 24.4178 27.8686 24.138 27.8687 23.7928Z" fill="#282828"/>
<path fill-rule="evenodd" clip-rule="evenodd" d="M31.9214 23.7928C31.9215 22.245 33.4426 20.8865 35.2186 21.1878C36.0157 21.323 36.521 21.8269 36.8139 22.343C37.099 22.8454 37.2079 23.3954 37.2239 23.7659C37.2243 23.7749 37.2245 23.7839 37.2245 23.7929V27.0151C37.2245 27.3603 36.9446 27.6401 36.5995 27.6401C36.2543 27.6401 35.9745 27.3603 35.9745 27.0151V23.8077C35.9632 23.594 35.8929 23.2527 35.7267 22.9599C35.5651 22.6752 35.3404 22.4763 35.0096 22.4202C33.966 22.2432 33.1714 23.0496 33.1714 23.7929C33.1714 24.1381 32.8915 24.4179 32.5464 24.4179C32.2012 24.4178 31.9214 24.138 31.9214 23.7928Z" fill="#282828"/>
</svg>
