<svg width="15" height="15" viewBox="0 0 15 15" fill="none" xmlns="http://www.w3.org/2000/svg">
<path d="M7.5 14.375C10.0888 14.375 12.1875 12.2763 12.1875 9.6875C12.1875 9.14656 12.0436 8.627 11.875 8.1435C10.8333 9.17281 10.0417 9.6875 9.5 9.6875C11.9971 5.3125 10.625 3.4375 6.875 0.9375C7.1875 4.06219 5.12752 5.48359 4.28862 6.27287C3.37991 7.12781 2.8125 8.34137 2.8125 9.6875C2.8125 12.2763 4.91116 14.375 7.5 14.375ZM7.94338 3.27186C9.96944 4.9908 9.97913 6.32644 8.41438 9.06787C7.93875 9.90119 8.5405 10.9375 9.5 10.9375C9.93025 10.9375 10.3651 10.812 10.8243 10.5657C10.4362 12.0387 9.09494 13.125 7.5 13.125C5.60152 13.125 4.0625 11.586 4.0625 9.6875C4.0625 8.7255 4.45799 7.82975 5.14516 7.18325C5.22391 7.10919 5.62343 6.75506 5.64048 6.73975C5.90539 6.50131 6.12363 6.29144 6.33931 6.06048C7.10831 5.23707 7.66069 4.32269 7.94338 3.27186Z" fill="#515151"/>
</svg>
