<svg width="21" height="21" viewBox="0 0 21 21" fill="none" xmlns="http://www.w3.org/2000/svg">
<path d="M3.5 17.5C3.01875 17.5 2.60677 17.3286 2.26406 16.9859C1.92135 16.6432 1.75 16.2312 1.75 15.75V5.25C1.75 4.76875 1.92135 4.35677 2.26406 4.01406C2.60677 3.67135 3.01875 3.5 3.5 3.5H8.75L10.5 5.25H17.5C17.9813 5.25 18.3932 5.42135 18.7359 5.76406C19.0786 6.10677 19.25 6.51875 19.25 7V15.75C19.25 16.2312 19.0786 16.6432 18.7359 16.9859C18.3932 17.3286 17.9813 17.5 17.5 17.5H3.5ZM3.5 15.75H17.5V7H9.77812L8.02813 5.25H3.5V15.75Z" fill="white"/>
</svg>
