<svg width="18" height="18" viewBox="0 0 18 18" fill="none" xmlns="http://www.w3.org/2000/svg">
<path fill-rule="evenodd" clip-rule="evenodd" d="M7.5 1.5C5.9087 1.5 4.38258 2.13214 3.25736 3.25736C2.13214 4.38258 1.5 5.9087 1.5 7.5C1.5 9.0913 2.13214 10.6174 3.25736 11.7426C4.38258 12.8679 5.9087 13.5 7.5 13.5C9.06958 13.5 10.5758 12.885 11.6964 11.7884C11.7102 11.772 11.7249 11.7559 11.7404 11.7404C11.7559 11.7249 11.772 11.7102 11.7884 11.6964C12.885 10.5758 13.5 9.06958 13.5 7.5C13.5 5.9087 12.8679 4.38258 11.7426 3.25736C10.6174 2.13214 9.0913 1.5 7.5 1.5ZM13.3071 12.2464C14.3971 10.9129 15 9.23754 15 7.5C15 5.51088 14.2098 3.60322 12.8033 2.1967C11.3968 0.790176 9.48912 0 7.5 0C5.51088 0 3.60322 0.790176 2.1967 2.1967C0.790176 3.60322 0 5.51088 0 7.5C0 9.48912 0.790176 11.3968 2.1967 12.8033C3.60322 14.2098 5.51088 15 7.5 15C9.23754 15 10.9129 14.3971 12.2464 13.3071L15.2197 16.2803C15.5126 16.5732 15.9874 16.5732 16.2803 16.2803C16.5732 15.9874 16.5732 15.5126 16.2803 15.2197L13.3071 12.2464ZM10.2803 5.46967C10.5732 5.76256 10.5732 6.23744 10.2803 6.53033L7.28033 9.53033C6.98744 9.82322 6.51256 9.82322 6.21967 9.53033L4.71967 8.03033C4.42678 7.73744 4.42678 7.26256 4.71967 6.96967C5.01256 6.67678 5.48744 6.67678 5.78033 6.96967L6.75 7.93934L9.21967 5.46967C9.51256 5.17678 9.98744 5.17678 10.2803 5.46967Z" fill="#4C6694"/>
</svg>
