<svg width="18" height="18" viewBox="0 0 18 18" fill="none" xmlns="http://www.w3.org/2000/svg">
<g clip-path="url(#clip0_300_6267)">
<path fill-rule="evenodd" clip-rule="evenodd" d="M3.91045 2.13399C5.17845 1.23399 6.69484 0.750352 8.24977 0.75C8.66398 0.749906 8.99984 1.08562 8.99994 1.49983C9.00003 1.91404 8.66432 2.24991 8.25011 2.25C7.00616 2.25028 5.79306 2.63719 4.77866 3.35719C3.76426 4.07719 2.99872 5.09467 2.58798 6.26885C2.17724 7.44303 2.14161 8.71584 2.48601 9.91117C2.83041 11.1065 3.53781 12.1652 4.51034 12.9408C5.48286 13.7165 6.67242 14.1706 7.9144 14.2405C9.15639 14.3104 10.3894 13.9925 11.4428 13.3309C11.8038 13.1041 12.1377 12.8408 12.4397 12.5463C12.4555 12.5271 12.4724 12.5084 12.4904 12.4904C12.5084 12.4724 12.5271 12.4555 12.5465 12.4396C13.0758 11.8969 13.5006 11.2557 13.7942 10.5474C14.2705 9.39829 14.3779 8.12951 14.1014 6.91667C14.0094 6.51281 14.2622 6.1108 14.666 6.01875C15.0699 5.92671 15.4719 6.17948 15.5639 6.58333C15.9095 8.09939 15.7753 9.68536 15.1799 11.1218C14.8978 11.8024 14.5187 12.4335 14.0578 12.9972L17.0303 15.9697C17.3232 16.2626 17.3232 16.7374 17.0303 17.0303C16.7374 17.3232 16.2625 17.3232 15.9696 17.0303L12.997 14.0577C12.7573 14.2536 12.5048 14.4352 12.2406 14.6011C10.9239 15.4282 9.38262 15.8255 7.83014 15.7382C6.27766 15.6508 4.79071 15.0831 3.57506 14.1135C2.3594 13.144 1.47514 11.8206 1.04464 10.3265C0.61414 8.83231 0.658685 7.24129 1.17211 5.77357C1.68554 4.30584 2.64246 3.03398 3.91045 2.13399ZM12.7499 0.75C13.0728 0.75 13.3594 0.956573 13.4615 1.26283C13.5591 1.5559 13.6185 1.7321 13.6737 1.86081C13.7245 1.97944 13.749 2.00092 13.749 2.00092C13.749 2.00092 13.7705 2.02542 13.8891 2.07627C14.0178 2.13143 14.194 2.1908 14.4871 2.28849C14.7934 2.39057 14.9999 2.67718 14.9999 3C14.9999 3.32282 14.7934 3.60943 14.4871 3.71151C14.194 3.8092 14.0178 3.86857 13.8891 3.92373C13.7705 3.97458 13.749 3.99908 13.749 3.99908C13.749 3.99908 13.7245 4.02056 13.6737 4.13919C13.6185 4.2679 13.5591 4.4441 13.4615 4.73717C13.3594 5.04343 13.0728 5.25 12.7499 5.25C12.4271 5.25 12.1405 5.04343 12.0384 4.73717C11.9407 4.4441 11.8814 4.2679 11.8262 4.13919C11.7754 4.02056 11.7509 3.99908 11.7509 3.99908C11.7509 3.99908 11.7294 3.97458 11.6107 3.92373C11.482 3.86857 11.3058 3.8092 11.0128 3.71151C10.7065 3.60943 10.4999 3.32282 10.4999 3C10.4999 2.67718 10.7065 2.39057 11.0128 2.28849C11.3058 2.1908 11.482 2.13143 11.6107 2.07627C11.7294 2.02542 11.7509 2.00092 11.7509 2.00092C11.7509 2.00092 11.7754 1.97944 11.8262 1.86081C11.8814 1.7321 11.9407 1.5559 12.0384 1.26283C12.1405 0.956573 12.4271 0.75 12.7499 0.75ZM8.24994 4.5C8.59409 4.5 8.89408 4.73422 8.97754 5.0681C9.28537 6.29938 10.2006 7.21457 11.4318 7.52239C11.7657 7.60586 11.9999 7.90585 11.9999 8.25C11.9999 8.59415 11.7657 8.89414 11.4318 8.97761C10.2006 9.28543 9.28537 10.2006 8.97754 11.4319C8.89408 11.7658 8.59409 12 8.24994 12C7.90579 12 7.6058 11.7658 7.52233 11.4319C7.21451 10.2006 6.29932 9.28543 5.06804 8.97761C4.73416 8.89414 4.49994 8.59415 4.49994 8.25C4.49994 7.90585 4.73416 7.60586 5.06804 7.52239C6.29932 7.21457 7.21451 6.29938 7.52233 5.0681C7.6058 4.73422 7.90579 4.5 8.24994 4.5ZM7.04597 8.25C7.5168 8.57633 7.92362 8.98314 8.24994 9.45397C8.57626 8.98314 8.98308 8.57633 9.4539 8.25C8.98308 7.92368 8.57626 7.51686 8.24994 7.04603C7.92362 7.51686 7.5168 7.92368 7.04597 8.25Z" fill="white"/>
</g>
<defs>
<clipPath id="clip0_300_6267">
<rect width="18" height="18" fill="white"/>
</clipPath>
</defs>
</svg>
