<svg width="20" height="20" viewBox="0 0 20 20" fill="none" xmlns="http://www.w3.org/2000/svg">
<path d="M8.21534 16.4248L10.0003 13.3332H4.22554C5.08943 14.8266 6.51599 15.9538 8.21534 16.4248ZM3.54369 11.6665H7.11358L4.22618 6.6654C3.65855 7.64622 3.33366 8.78509 3.33366 9.99984C3.33366 10.5753 3.40658 11.1338 3.54369 11.6665ZM5.32946 5.243L7.11358 8.33317L10.0003 3.33317C8.18124 3.33317 6.53233 4.06175 5.32946 5.243ZM11.7853 3.57482L10.0003 6.6665H15.7751C14.9112 5.1731 13.4847 4.04591 11.7853 3.57482ZM16.457 8.33317H12.8871L15.7745 13.3343C16.3421 12.3534 16.667 11.2146 16.667 9.99984C16.667 9.42434 16.5941 8.86584 16.457 8.33317ZM14.6712 14.7567L12.8871 11.6665L10.0003 16.6665C11.8194 16.6665 13.4683 15.9379 14.6712 14.7567ZM10.0003 18.3332C5.39795 18.3332 1.66699 14.6022 1.66699 9.99984C1.66699 5.39746 5.39795 1.6665 10.0003 1.6665C14.6027 1.6665 18.3337 5.39746 18.3337 9.99984C18.3337 14.6022 14.6027 18.3332 10.0003 18.3332ZM10.9626 8.33317H9.03808L8.07583 9.99984L9.03808 11.6665H10.9626L11.9248 9.99984L10.9626 8.33317Z" fill="#031E4D"/>
</svg>
