<svg width="20" height="20" viewBox="0 0 20 20" fill="none" xmlns="http://www.w3.org/2000/svg">
<path d="M1.66699 3.32783C1.66699 2.87063 2.04642 2.5 2.49349 2.5H17.5072C17.9637 2.5 18.3337 2.87079 18.3337 3.32783V16.6722C18.3337 17.1293 17.9542 17.5 17.5072 17.5H2.49349C2.03703 17.5 1.66699 17.1292 1.66699 16.6722V3.32783ZM6.66699 4.16667V15.8333H13.3337V4.16667H6.66699ZM3.33366 4.16667V5.83333H5.00033V4.16667H3.33366ZM15.0003 4.16667V5.83333H16.667V4.16667H15.0003ZM3.33366 7.5V9.16667H5.00033V7.5H3.33366ZM15.0003 7.5V9.16667H16.667V7.5H15.0003ZM3.33366 10.8333V12.5H5.00033V10.8333H3.33366ZM15.0003 10.8333V12.5H16.667V10.8333H15.0003ZM3.33366 14.1667V15.8333H5.00033V14.1667H3.33366ZM15.0003 14.1667V15.8333H16.667V14.1667H15.0003Z" fill="#031E4D"/>
</svg>
