<svg width="19" height="19" viewBox="0 0 19 19" fill="none" xmlns="http://www.w3.org/2000/svg">
<path d="M4.7487 2.375C7.51147 2.375 9.80202 4.39675 10.2216 7.04148C11.1519 6.11475 12.4354 5.54167 13.8528 5.54167H17.4153V7.52083C17.4153 10.3628 15.1115 12.6667 12.2695 12.6667H10.2903V16.625H8.70699V10.2917H7.1237C4.06311 10.2917 1.58203 7.81058 1.58203 4.75V2.375H4.7487ZM15.832 7.125H13.8528C11.8854 7.125 10.2903 8.71997 10.2903 10.6875V11.0833H12.2695C14.237 11.0833 15.832 9.48836 15.832 7.52083V7.125ZM4.7487 3.95833H3.16536V4.75C3.16536 6.93612 4.93757 8.70833 7.1237 8.70833H8.70699V7.91667C8.70699 5.73054 6.93482 3.95833 4.7487 3.95833Z" fill="white"/>
</svg>
