<svg width="13" height="13" viewBox="0 0 13 13" fill="none" xmlns="http://www.w3.org/2000/svg">
<path d="M1.08301 2.16309C1.08301 1.86591 1.32963 1.625 1.62023 1.625H11.3791C11.6758 1.625 11.9163 1.86601 11.9163 2.16309V10.8369C11.9163 11.1341 11.6697 11.375 11.3791 11.375H1.62023C1.32353 11.375 1.08301 11.134 1.08301 10.8369V2.16309ZM2.16634 2.70833V10.2917H10.833V2.70833H2.16634ZM5.7532 4.5579L8.39594 6.31973C8.4955 6.38609 8.52242 6.52064 8.45601 6.6202C8.44014 6.64398 8.41972 6.6644 8.39594 6.68027L5.7532 8.44209C5.65365 8.5085 5.5191 8.48158 5.45274 8.38202C5.42902 8.34643 5.41634 8.30462 5.41634 8.26183V4.73818C5.41634 4.61852 5.51335 4.52151 5.63301 4.52151C5.6758 4.52151 5.71762 4.53417 5.7532 4.5579Z" fill="#DF0000"/>
</svg>
