<svg xmlns="http://www.w3.org/2000/svg" width="24" height="24" viewBox="0 0 24 24" fill="none">
  <path fill-rule="evenodd" clip-rule="evenodd" d="M7 3.5C6.60218 3.5 6.22064 3.65804 5.93934 3.93934C5.65804 4.22064 5.5 4.60218 5.5 5V19C5.5 19.3978 5.65804 19.7794 5.93934 20.0607C6.22064 20.342 6.60218 20.5 7 20.5H17C17.3978 20.5 17.7794 20.342 18.0607 20.0607C18.342 19.7794 18.5 19.3978 18.5 19V9.41411C18.4999 9.28155 18.4473 9.15433 18.3535 9.06061L12.9394 3.64655C12.8457 3.5528 12.7186 3.50006 12.586 3.5H7ZM5.23223 3.23223C5.70107 2.76339 6.33696 2.5 7 2.5H12.586C12.9838 2.50008 13.3653 2.65816 13.6466 2.93945M13.6466 2.93945L19.0605 8.35339C19.3418 8.63463 19.4999 9.01613 19.5 9.41389V19C19.5 19.663 19.2366 20.2989 18.7678 20.7678C18.2989 21.2366 17.663 21.5 17 21.5H7C6.33696 21.5 5.70107 21.2366 5.23223 20.7678C4.76339 20.2989 4.5 19.663 4.5 19V5C4.5 4.33696 4.76339 3.70107 5.23223 3.23223" fill="#083FA1"/>
  <path fill-rule="evenodd" clip-rule="evenodd" d="M6.5 10C6.5 9.72386 6.72386 9.5 7 9.5H17C17.2761 9.5 17.5 9.72386 17.5 10C17.5 10.2583 17.3041 10.4709 17.0528 10.4972V15.6471C17.0528 15.8965 16.9589 16.1405 16.7843 16.3242C16.6088 16.5089 16.3653 16.6176 16.1056 16.6176H7.89441C7.63474 16.6176 7.39119 16.5089 7.21574 16.3242C7.04113 16.1405 6.94721 15.8965 6.94721 15.6471V10.4972C6.69588 10.4709 6.5 10.2583 6.5 10ZM7.94721 10.5V15.6176H16.0528V10.5H7.94721ZM9.5 11.5C9.22386 11.5 9 11.7239 9 12C9 12.2761 9.22386 12.5 9.5 12.5H10.5C10.7761 12.5 11 12.2761 11 12C11 11.7239 10.7761 11.5 10.5 11.5H9.5ZM13 11.5C12.7239 11.5 12.5 11.7239 12.5 12C12.5 12.2761 12.7239 12.5 13 12.5H14.5C14.7761 12.5 15 12.2761 15 12C15 11.7239 14.7761 11.5 14.5 11.5H13ZM9.5 13.5C9.22386 13.5 9 13.7239 9 14C9 14.2761 9.22386 14.5 9.5 14.5H14.5C14.7761 14.5 15 14.2761 15 14C15 13.7239 14.7761 13.5 14.5 13.5H9.5Z" fill="#083FA1"/>
</svg>