<?xml version="1.0" encoding="UTF-8"?>
<svg xmlns="http://www.w3.org/2000/svg" width="18" height="18" viewBox="0 0 18 18" fill="none">
  <path fill-rule="evenodd" clip-rule="evenodd" d="M5.25 2.58431C4.95163 2.58431 4.66548 2.701 4.4545 2.90871C4.24353 3.11641 4.125 3.39812 4.125 3.69186V14.029C4.125 14.3227 4.24353 14.6044 4.4545 14.8122C4.66548 15.0199 4.95163 15.1365 5.25 15.1365H12.75C13.0484 15.1365 13.3345 15.0199 13.5455 14.8122C13.7565 14.6044 13.875 14.3227 13.875 14.029V6.95109V6.95109C13.875 6.85322 13.8354 6.75928 13.7651 6.69008L9.70459 2.69252C9.63429 2.6233 9.53892 2.58436 9.4395 2.58431V2.58431H5.25ZM3.92417 2.3866C4.27581 2.04043 4.75272 1.84595 5.25 1.84595H9.4395C9.73783 1.84601 10.024 1.96272 10.2349 2.17042M10.2349 2.17042L14.2954 6.1679V6.1679C14.5063 6.37555 14.6249 6.65724 14.625 6.95094V14.029C14.625 14.5186 14.4275 14.9881 14.0758 15.3343C13.7242 15.6804 13.2473 15.8749 12.75 15.8749H5.25C4.75272 15.8749 4.27581 15.6804 3.92417 15.3343C3.57254 14.9881 3.375 14.5186 3.375 14.029V3.69186C3.375 3.2023 3.57254 2.73278 3.92417 2.3866" fill="#E72A2A"/>
  <path d="M7.61885 5.90879C7.25317 5.90249 6.93754 6.26056 7.0149 6.61829C7.06693 7.16493 7.42495 7.60851 7.70433 8.0599C7.73574 8.22793 7.6457 8.39161 7.63968 8.55849C7.45752 9.53812 7.17963 10.5126 6.7521 11.4117C6.22309 11.6515 5.62408 11.8882 5.31465 12.405C5.11827 12.7635 5.39478 13.2474 5.80066 13.2853C6.17723 13.336 6.45671 13.0183 6.66256 12.7521C6.87749 12.4658 7.01891 12.1249 7.19774 11.8171C8.28009 11.388 9.4185 11.0881 10.5808 10.9743C11.0508 11.3054 11.5487 11.6961 12.1513 11.7197C12.5015 11.7145 12.785 11.3798 12.7465 11.0398C12.7239 10.7302 12.4446 10.5132 12.1552 10.455C11.6885 10.3166 11.1886 10.3924 10.7138 10.3958C9.80019 9.6771 8.95672 8.85019 8.29245 7.90396C8.34176 7.32876 8.44076 6.69249 8.13652 6.1692C8.02101 6.00416 7.82523 5.89109 7.61885 5.90879ZM7.63626 6.43116C7.73913 6.45068 7.74598 6.60153 7.77478 6.68222C7.80189 6.84663 7.79893 7.01439 7.79695 7.18043C7.67444 6.955 7.5153 6.7195 7.54365 6.45222C7.57595 6.45098 7.60454 6.43486 7.63626 6.43116ZM8.20301 8.67428C8.74752 9.34075 9.35237 9.95454 10.0125 10.5112C9.14214 10.6419 8.27744 10.8608 7.44946 11.156C7.76704 10.3388 8.00885 9.49456 8.16818 8.63296C8.17979 8.64673 8.1914 8.6605 8.20301 8.67428ZM11.5995 10.9151C11.8107 10.9351 12.0544 10.9231 12.2233 11.0663C12.2391 11.1956 12.0785 11.2145 11.9929 11.1677C11.8144 11.109 11.6379 11.0352 11.4863 10.9228C11.5241 10.9205 11.5617 10.9158 11.5995 10.9151ZM6.32387 12.2748C6.22348 12.4586 6.07735 12.6319 5.92493 12.7621C5.87422 12.8429 5.73504 12.6935 5.79908 12.6303C5.93132 12.4266 6.16216 12.3186 6.36662 12.1968C6.35237 12.2228 6.33812 12.2488 6.32387 12.2748Z" fill="#E72A2A"/>
</svg> 