<?xml version="1.0" encoding="UTF-8"?>
<svg xmlns="http://www.w3.org/2000/svg" width="18" height="19" viewBox="0 0 18 19" fill="none">
  <path fill-rule="evenodd" clip-rule="evenodd" d="M5.25 3.10742C4.95163 3.10742 4.66548 3.22595 4.4545 3.43693C4.24353 3.64791 4.125 3.93405 4.125 4.23242V14.7324C4.125 15.0308 4.24353 15.3169 4.4545 15.5279C4.66548 15.7389 4.95163 15.8574 5.25 15.8574H12.75C13.0484 15.8574 13.3345 15.7389 13.5455 15.5279C13.7565 15.3169 13.875 15.0308 13.875 14.7324V7.543V7.543C13.875 7.44358 13.8354 7.34817 13.7651 7.27788L9.70459 3.21734C9.63429 3.14702 9.53892 3.10746 9.4395 3.10742V3.10742H5.25ZM3.92417 2.9066C4.27581 2.55497 4.75272 2.35742 5.25 2.35742H9.4395C9.73783 2.35749 10.024 2.47604 10.2349 2.68701M10.2349 2.68701L14.2954 6.74747V6.74747C14.5063 6.95839 14.6249 7.24452 14.625 7.54284V14.7324C14.625 15.2297 14.4275 15.7066 14.0758 16.0582C13.7242 16.4099 13.2473 16.6074 12.75 16.6074H5.25C4.75272 16.6074 4.27581 16.4099 3.92417 16.0582C3.57254 15.7066 3.375 15.2297 3.375 14.7324V4.23242C3.375 3.73514 3.57254 3.25823 3.92417 2.9066" fill="#3F82EF"/>
  <path fill-rule="evenodd" clip-rule="evenodd" d="M6 8.35742C6 8.15032 6.16789 7.98242 6.375 7.98242H11.625C11.8321 7.98242 12 8.15032 12 8.35742C12 8.56453 11.8321 8.73242 11.625 8.73242H6.375C6.16789 8.73242 6 8.56453 6 8.35742ZM6 10.6074C6 10.4003 6.16789 10.2324 6.375 10.2324H10.125C10.3321 10.2324 10.5 10.4003 10.5 10.6074C10.5 10.8145 10.3321 10.9824 10.125 10.9824H6.375C6.16789 10.9824 6 10.8145 6 10.6074ZM6 12.8574C6 12.6503 6.16789 12.4824 6.375 12.4824H8.625C8.83211 12.4824 9 12.6503 9 12.8574C9 13.0645 8.83211 13.2324 8.625 13.2324H6.375C6.16789 13.2324 6 13.0645 6 12.8574Z" fill="#3F82EF"/>
</svg> 