<svg width="56" height="53" viewBox="0 0 56 53" fill="none" xmlns="http://www.w3.org/2000/svg">
<path d="M29.4044 9.47445L50.395 6.12065C52.1932 5.83334 53.819 7.32956 53.8793 9.32719L55.0237 47.2322C55.0786 49.0499 53.806 50.5842 52.1555 50.6904L30.0205 52.1151C28.2702 52.2277 26.7946 50.6967 26.7946 48.7681V12.7923C26.7946 11.1268 27.9061 9.71385 29.4044 9.47445Z" fill="#282828"/>
<path d="M26.5956 9.47445L5.605 6.12065C3.80684 5.83334 2.18103 7.32956 2.12072 9.32719L0.976319 47.2322C0.921443 49.0499 2.19398 50.5842 3.84447 50.6904L25.9795 52.1151C27.7298 52.2277 29.2054 50.6967 29.2054 48.7681V12.7923C29.2054 11.1268 28.0939 9.71385 26.5956 9.47445Z" fill="#282828"/>
<path d="M28.9223 8.28863L49.5204 4.46939C50.1285 4.35664 50.687 4.86099 50.7048 5.53905L51.7789 46.3481C51.7947 46.9485 51.3761 47.4553 50.8313 47.4954L29.1591 49.0936C28.5726 49.1368 28.0752 48.6252 28.0752 47.9785V9.39063C28.0752 8.84511 28.4333 8.37931 28.9223 8.28863Z" fill="white"/>
<path fill-rule="evenodd" clip-rule="evenodd" d="M49.3512 3.36738L28.7531 7.18663C27.775 7.36797 27.0589 8.29958 27.0589 9.39063V47.9785C27.0589 49.2718 28.0537 50.2951 29.2267 50.2086L50.8989 48.6105C51.9886 48.5301 52.8257 47.5166 52.7941 46.3157L51.72 5.50671C51.6843 4.15058 50.5674 3.14188 49.3512 3.36738ZM49.5201 4.46939L28.9219 8.28863C28.4329 8.3793 28.0749 8.84511 28.0749 9.39063V47.9785C28.0749 48.6252 28.5722 49.1368 29.1588 49.0936L50.831 47.4954C51.3758 47.4553 51.7943 46.9485 51.7785 46.3481L50.7045 5.53905C50.6866 4.86098 50.1282 4.35663 49.5201 4.46939Z" fill="#282828"/>
<path d="M29.2933 8.19886L46.9778 2.05005C47.6209 1.82643 48.28 2.34164 48.2995 3.0833L49.3716 43.8212C49.3861 44.369 49.0372 44.8475 48.5479 44.951L29.7913 48.918C29.1647 49.0505 28.5835 48.5224 28.5835 47.8206V9.26444C28.5835 8.77699 28.8707 8.34577 29.2933 8.19886Z" fill="white"/>
<path fill-rule="evenodd" clip-rule="evenodd" d="M46.6712 0.984448L28.9867 7.13325C28.1417 7.42708 27.5672 8.28951 27.5672 9.26442V47.8205C27.5672 49.2242 28.7297 50.2805 29.9828 50.0154L48.7394 46.0484C49.718 45.8414 50.4157 44.8845 50.3868 43.7888L49.3147 3.05093C49.2756 1.56762 47.9575 0.537208 46.6712 0.984448ZM46.9774 2.05003L29.2929 8.19884C28.8704 8.34575 28.5832 8.77697 28.5832 9.26442V47.8205C28.5832 48.5224 29.1644 49.0505 29.791 48.918L48.5476 44.9509C49.0369 44.8475 49.3857 44.369 49.3713 43.8212L48.2991 3.08327C48.2796 2.34162 47.6206 1.82641 46.9774 2.05003Z" fill="#282828"/>
<path d="M33.2227 6.03262L36.3416 4.9127V14.0971L34.7821 13.0446L33.2227 14.7601V6.03262Z" fill="#282828"/>
<path fill-rule="evenodd" clip-rule="evenodd" d="M32.2061 6.03263C32.2061 5.54904 32.4888 5.12031 32.9067 4.97025L36.0257 3.85033C36.3351 3.73924 36.6742 3.79792 36.9376 4.00815C37.201 4.21838 37.3569 4.55471 37.3569 4.91271V14.0971C37.3569 14.5017 37.1581 14.8747 36.8372 15.0723C36.5162 15.2699 36.1232 15.2612 35.8097 15.0497L34.9332 14.4582L33.9404 15.5503C33.6498 15.8699 33.2129 15.9655 32.8332 15.7926C32.4536 15.6196 32.2061 15.2121 32.2061 14.7601V6.03263ZM36.341 14.0971L34.7815 13.0446L33.222 14.7601V6.03263L36.341 4.91271V14.0971Z" fill="#282828"/>
<path d="M26.6265 8.2878L6.17201 4.47096C5.56352 4.35742 5.00431 4.86201 4.98656 5.54064L3.91937 46.3487C3.90368 46.9489 4.32192 47.4554 4.86652 47.4958L26.3882 49.093C26.9749 49.1366 27.4726 48.6248 27.4726 47.978V9.38961C27.4726 8.84453 27.1151 8.37897 26.6265 8.2878Z" fill="white"/>
<path fill-rule="evenodd" clip-rule="evenodd" d="M6.34129 3.36914L26.7958 7.18598C27.7729 7.36831 28.4879 8.29943 28.4879 9.38959V47.978C28.4879 49.2716 27.4925 50.2951 26.3192 50.208L4.79749 48.6108C3.70829 48.53 2.87181 47.5169 2.9032 46.3165L3.97039 5.50848C4.00588 4.15124 5.1243 3.14205 6.34129 3.36914ZM6.17137 4.47094L26.6259 8.28779C27.1144 8.37895 27.4719 8.84451 27.4719 9.38959V47.978C27.4719 48.6248 26.9743 49.1365 26.3876 49.093L4.86588 47.4958C4.32128 47.4554 3.90304 46.9488 3.91873 46.3487L4.98592 5.54062C5.00367 4.86199 5.56288 4.3574 6.17137 4.47094Z" fill="#282828"/>
<path fill-rule="evenodd" clip-rule="evenodd" d="M21.8181 19.3739C22.4884 19.0469 23.2545 19.0785 23.8395 19.3823C24.0932 19.5141 24.2018 19.8471 24.082 20.1262C23.9622 20.4052 23.6595 20.5247 23.4058 20.3929C23.0862 20.2269 22.6287 20.201 22.23 20.3955C21.856 20.578 21.5054 20.9683 21.3899 21.7131C21.2752 22.4529 21.4273 23.1615 21.7631 23.6317C22.0814 24.0774 22.5994 24.3613 23.3638 24.2189C23.6404 24.1674 23.9026 24.3723 23.9495 24.6766C23.9963 24.9809 23.81 25.2693 23.5334 25.3208C22.4197 25.5282 21.5234 25.105 20.9642 24.3221C20.4225 23.5636 20.2339 22.522 20.3884 21.5252C20.5592 20.4234 21.1231 19.713 21.8181 19.3739Z" fill="#282828"/>
<path fill-rule="evenodd" clip-rule="evenodd" d="M47.2234 16.5797C47.1696 16.2769 46.9028 16.0793 46.6274 16.1385L30.4294 19.6192C30.1541 19.6783 29.9745 19.9718 30.0283 20.2747C30.082 20.5776 30.3489 20.7751 30.6242 20.716L46.8222 17.2353C47.0975 17.1761 47.2772 16.8826 47.2234 16.5797Z" fill="#282828"/>
<path fill-rule="evenodd" clip-rule="evenodd" d="M47.2234 19.1489C47.1696 18.846 46.9028 18.6484 46.6274 18.7076L30.4294 22.1883C30.1541 22.2474 29.9745 22.5409 30.0283 22.8438C30.082 23.1467 30.3489 23.3443 30.6242 23.2851L46.8222 19.8044C47.0975 19.7452 47.2772 19.4517 47.2234 19.1489Z" fill="#282828"/>
<path fill-rule="evenodd" clip-rule="evenodd" d="M47.2234 29.4667C47.1696 29.1638 46.9028 28.9663 46.6274 29.0254L30.4294 32.5061C30.1541 32.5653 29.9745 32.8588 30.0283 33.1617C30.082 33.4645 30.3489 33.6621 30.6242 33.6029L46.8222 30.1222C47.0975 30.0631 47.2772 29.7696 47.2234 29.4667Z" fill="#282828"/>
<path fill-rule="evenodd" clip-rule="evenodd" d="M47.2234 21.8009C47.1696 21.498 46.9028 21.3004 46.6274 21.3596L30.4294 24.8403C30.1541 24.8995 29.9745 25.193 30.0283 25.4958C30.082 25.7987 30.3489 25.9963 30.6242 25.9371L46.8222 22.4564C47.0975 22.3973 47.2772 22.1038 47.2234 21.8009Z" fill="#282828"/>
<path fill-rule="evenodd" clip-rule="evenodd" d="M47.2234 32.1187C47.1696 31.8159 46.9028 31.6183 46.6274 31.6775L30.4294 35.1581C30.1541 35.2173 29.9745 35.5108 30.0283 35.8137C30.082 36.1166 30.3489 36.3141 30.6242 36.255L46.8222 32.7743C47.0975 32.7151 47.2772 32.4216 47.2234 32.1187Z" fill="#282828"/>
<path fill-rule="evenodd" clip-rule="evenodd" d="M47.2234 24.5565C47.1696 24.2537 46.9028 24.0561 46.6274 24.1153L30.4294 27.5959C30.1541 27.6551 29.9745 27.9486 30.0283 28.2515C30.082 28.5544 30.3489 28.7519 30.6242 28.6928L46.8222 25.2121C47.0975 25.1529 47.2772 24.8594 47.2234 24.5565Z" fill="#282828"/>
<path fill-rule="evenodd" clip-rule="evenodd" d="M47.2234 34.8744C47.1696 34.5716 46.9028 34.374 46.6274 34.4332L30.4294 37.9139C30.1541 37.973 29.9745 38.2665 30.0283 38.5694C30.082 38.8723 30.3489 39.0698 30.6242 39.0107L46.8222 35.53C47.0975 35.4708 47.2772 35.1773 47.2234 34.8744Z" fill="#282828"/>
<path fill-rule="evenodd" clip-rule="evenodd" d="M39.8796 39.3408C39.832 39.0367 39.5692 38.8326 39.2927 38.8851L30.4403 40.5634C30.1639 40.6158 29.9784 40.9049 30.026 41.209C30.0737 41.5131 30.3364 41.7171 30.6129 41.6647L39.4653 39.9864C39.7418 39.934 39.9273 39.6449 39.8796 39.3408Z" fill="#282828"/>
<path fill-rule="evenodd" clip-rule="evenodd" d="M7.26485 28.5799C7.29048 28.2726 7.53774 28.0464 7.81711 28.0745L24.2411 29.732C24.5205 29.7602 24.7262 30.0322 24.7006 30.3395C24.675 30.6468 24.4277 30.8731 24.1483 30.8449L7.7243 29.1874C7.44492 29.1592 7.23922 28.8872 7.26485 28.5799Z" fill="#282828"/>
<path fill-rule="evenodd" clip-rule="evenodd" d="M7.26485 36.0365C7.29048 35.7292 7.53774 35.503 7.81711 35.5311L24.2411 37.1886C24.5205 37.2168 24.7262 37.4888 24.7006 37.7961C24.675 38.1034 24.4277 38.3297 24.1483 38.3015L7.7243 36.644C7.44492 36.6158 7.23922 36.3438 7.26485 36.0365Z" fill="#282828"/>
<path fill-rule="evenodd" clip-rule="evenodd" d="M7.26388 31.2409C7.28269 30.933 7.52486 30.7002 7.80478 30.7209L16.7702 31.3838C17.0501 31.4045 17.2618 31.6709 17.2429 31.9788C17.2241 32.2867 16.982 32.5196 16.702 32.4989L7.73663 31.8359C7.45672 31.8152 7.24506 31.5488 7.26388 31.2409Z" fill="#282828"/>
<path fill-rule="evenodd" clip-rule="evenodd" d="M7.26397 38.696C7.28356 38.3882 7.52631 38.1561 7.80618 38.1776L20.6728 39.1684C20.9526 39.1899 21.1636 39.457 21.144 39.7648C21.1244 40.0727 20.8817 40.3048 20.6018 40.2832L7.73523 39.2925C7.45537 39.2709 7.24438 39.0039 7.26397 38.696Z" fill="#282828"/>
<path fill-rule="evenodd" clip-rule="evenodd" d="M7.26388 41.0766C7.28269 40.7687 7.52486 40.5358 7.80478 40.5565L16.7702 41.2195C17.0501 41.2402 17.2618 41.5066 17.2429 41.8145C17.2241 42.1224 16.982 42.3553 16.702 42.3346L7.73663 41.6716C7.45672 41.6509 7.24506 41.3845 7.26388 41.0766Z" fill="#282828"/>
<path fill-rule="evenodd" clip-rule="evenodd" d="M10.6039 12.3166C10.8206 12.328 11.0068 12.4895 11.0674 12.7187L14.081 24.1138C14.1594 24.4101 14.0045 24.7202 13.7351 24.8064C13.4657 24.8926 13.1838 24.7223 13.1055 24.426L10.505 14.5931L7.09634 24.0206C6.99265 24.3073 6.69728 24.4473 6.43659 24.3333C6.1759 24.2192 6.04863 23.8943 6.15231 23.6076L10.1076 12.6683C10.1878 12.4465 10.3872 12.3052 10.6039 12.3166Z" fill="#282828"/>
<path fill-rule="evenodd" clip-rule="evenodd" d="M12.8016 19.94C12.8016 20.2486 12.5742 20.4987 12.2937 20.4987L8.05576 20.4987C7.77521 20.4987 7.54778 20.2486 7.54778 19.9399C7.54778 19.6313 7.77521 19.3812 8.05576 19.3812L12.2937 19.3812C12.5742 19.3812 12.8016 19.6314 12.8016 19.94Z" fill="#282828"/>
<path fill-rule="evenodd" clip-rule="evenodd" d="M16.2865 16.8942V19.1771C16.4199 19.1829 16.5629 19.1992 16.7072 19.2235C16.9052 19.2059 17.1217 19.1675 17.3262 19.0969C17.5669 19.0138 17.7526 18.8989 17.8734 18.7609C17.9829 18.6358 18.0581 18.4717 18.0581 18.2201C18.0581 17.7313 17.7958 17.4036 17.3161 17.1715C16.9963 17.0167 16.6231 16.9314 16.2865 16.8942ZM18.302 19.8156C18.4096 19.7352 18.512 19.6427 18.6054 19.5359C18.8949 19.205 19.074 18.7641 19.074 18.2201C19.074 17.1177 18.4071 16.4786 17.7253 16.1486C17.0544 15.8239 16.2768 15.7402 15.7648 15.7555C15.4897 15.7636 15.2705 16.0113 15.2705 16.314V24.3528C15.2705 24.6001 15.4183 24.8179 15.6337 24.8884C16.184 25.0683 17.0832 25.1341 17.8965 24.8494C18.3106 24.7044 18.7239 24.4609 19.0526 24.0708C19.3861 23.6751 19.6095 23.1553 19.6737 22.5073C19.8079 21.1547 19.078 20.2993 18.302 19.8156ZM16.2865 20.3501C16.4005 20.3548 16.5249 20.3543 16.6558 20.347C16.9613 20.4081 17.3155 20.5212 17.6422 20.696C18.3091 21.0529 18.7433 21.5844 18.6638 22.3861C18.6218 22.8091 18.4845 23.1011 18.3075 23.3111C18.1259 23.5266 17.8791 23.6827 17.5884 23.7845C17.1515 23.9374 16.6646 23.9504 16.2865 23.8976V20.3501Z" fill="#282828"/>
</svg>
