<svg width="34" height="29" viewBox="0 0 34 29" fill="none" xmlns="http://www.w3.org/2000/svg">
<g clip-path="url(#clip0_98_1002)">
<path d="M33.5208 9.36797L25.4995 4.91375C25.4922 4.90988 25.4842 4.90833 25.4761 4.90446C25.4104 4.86895 25.3405 4.84117 25.2679 4.82171H25.2574C25.1885 4.80517 25.1178 4.79634 25.0467 4.79541C25.025 4.79541 25.0033 4.79541 24.9816 4.79541C24.9258 4.79775 24.8704 4.80474 24.8159 4.81629C24.795 4.81629 24.7741 4.82403 24.754 4.82944C24.68 4.84916 24.6087 4.87747 24.5417 4.91375L16.5212 9.36797L8.97833 13.5561L6.23459 12.0325C6.01438 11.9103 5.75275 11.8773 5.50723 11.9407C5.26172 12.0041 5.05245 12.1587 4.92544 12.3704C4.79844 12.5822 4.76411 12.8339 4.83001 13.07C4.89592 13.3062 5.05665 13.5074 5.27685 13.6296L8.02059 15.1533V18.3708C8.02781 18.6106 8.13193 18.8382 8.31082 19.0053C8.48972 19.1725 8.72931 19.266 8.97873 19.266C9.22814 19.266 9.46773 19.1725 9.64663 19.0053C9.82553 18.8382 9.92964 18.6106 9.93686 18.3708V15.1533L17.4789 10.9651L25.021 6.77695L32.087 10.6975V18.5417L25.0242 22.4646L22.5105 21.0685C22.4015 21.008 22.2813 20.9688 22.1566 20.953C22.0319 20.9372 21.9052 20.9452 21.7837 20.9765C21.6622 21.0078 21.5483 21.0618 21.4485 21.1355C21.3487 21.2091 21.265 21.301 21.2021 21.4057C21.1392 21.5105 21.0984 21.6262 21.082 21.7461C21.0656 21.866 21.0739 21.9879 21.1064 22.1048C21.139 22.2216 21.1952 22.3312 21.2717 22.4271C21.3483 22.5231 21.4438 22.6036 21.5527 22.6641L24.5457 24.3262C24.6913 24.4073 24.8564 24.45 25.0246 24.45C25.1928 24.45 25.358 24.4073 25.5035 24.3262L33.5248 19.872C33.6711 19.7916 33.7928 19.6754 33.8775 19.5353C33.9622 19.3951 34.007 19.2359 34.0073 19.0738V10.1662C34.0066 10.0037 33.9612 9.84423 33.8758 9.70405C33.7903 9.56387 33.6679 9.44792 33.5208 9.36797Z" fill="#1A1A1A"/>
<path d="M14.1851 3.40604C14.3529 3.40628 14.5178 3.36357 14.6628 3.28229L16.9996 1.98446L19.3365 3.28229C19.5565 3.40444 19.8179 3.43754 20.0632 3.3743C20.3086 3.31106 20.5178 3.15666 20.6448 2.94507C20.7718 2.73348 20.8062 2.48203 20.7405 2.24604C20.6747 2.01005 20.5142 1.80884 20.2942 1.68669L17.4797 0.1228C17.3341 0.0418754 17.169 -0.000732422 17.0008 -0.000732422C16.8327 -0.000732422 16.6675 0.0418754 16.522 0.1228L13.7075 1.68669C13.5244 1.78813 13.3813 1.94495 13.3005 2.13273C13.2198 2.32052 13.2058 2.52872 13.2609 2.72492C13.3159 2.92112 13.4369 3.0943 13.6049 3.21749C13.773 3.34069 13.9787 3.40698 14.1899 3.40604H14.1851Z" fill="#1A1A1A"/>
<path d="M19.3364 25.7167L16.9996 27.0145L14.6627 25.7167C14.4427 25.5945 14.1813 25.5614 13.9359 25.6247C13.6906 25.6879 13.4814 25.8423 13.3544 26.0539C13.2274 26.2655 13.193 26.5169 13.2587 26.7529C13.3245 26.9889 13.485 27.1901 13.705 27.3123L16.5195 28.8762C16.665 28.9572 16.8302 28.9999 16.9984 28.9999C17.1665 28.9999 17.3317 28.9572 17.4772 28.8762L20.2917 27.3123C20.5117 27.1901 20.6722 26.9889 20.738 26.7529C20.8038 26.5169 20.7693 26.2655 20.6423 26.0539C20.5153 25.8423 20.3061 25.6879 20.0608 25.6247C19.8154 25.5614 19.554 25.5945 19.334 25.7167H19.3364Z" fill="#1A1A1A"/>
<path d="M25.0209 15.6837L27.9054 17.2847C28.0504 17.366 28.2152 17.4087 28.3831 17.4084C28.5943 17.4094 28.8 17.3431 28.9681 17.2199C29.1361 17.0967 29.2571 16.9235 29.3121 16.7273C29.3672 16.5311 29.3532 16.3229 29.2725 16.1351C29.1917 15.9473 29.0486 15.7905 28.8655 15.6891L25.9754 14.0881V10.8706C25.9754 10.6263 25.8745 10.392 25.6949 10.2192C25.5153 10.0465 25.2717 9.94942 25.0177 9.94942C24.7637 9.94942 24.5201 10.0465 24.3405 10.2192C24.1609 10.392 24.06 10.6263 24.06 10.8706V14.0881L16.5187 18.2755L9.34495 22.261L8.97826 22.4644L1.91546 18.5415V10.6973L8.97826 6.77523L11.4928 8.17128C11.7128 8.29344 11.9742 8.32654 12.2196 8.2633C12.465 8.20005 12.6742 8.04566 12.8012 7.83407C12.9282 7.62248 12.9626 7.37103 12.8968 7.13504C12.8311 6.89904 12.6705 6.69784 12.4506 6.57569L9.45753 4.91357C9.31196 4.83265 9.1468 4.79004 8.97866 4.79004C8.81053 4.79004 8.64536 4.83265 8.49979 4.91357L0.478458 9.36779C0.332178 9.4483 0.210553 9.56447 0.125845 9.70461C0.0411367 9.84474 -0.00366029 10.0039 -0.00402832 10.166V19.0736C-0.00366029 19.2357 0.0411367 19.3949 0.125845 19.535C0.210553 19.6751 0.332178 19.7913 0.478458 19.8718L8.49979 24.326C8.55127 24.3515 8.60512 24.3722 8.66062 24.3879C8.68463 24.3992 8.70934 24.409 8.7346 24.4173C8.77412 24.425 8.81417 24.4299 8.85442 24.432C8.89527 24.4401 8.93664 24.4456 8.97826 24.4483C9.14628 24.4481 9.3113 24.4054 9.45672 24.3245L25.0209 15.6837Z" fill="#1A1A1A"/>
</g>
<defs>
<clipPath id="clip0_98_1002">
<rect width="34" height="29" fill="white"/>
</clipPath>
</defs>
</svg>
